<?xml version="1.0" standalone="no"?>
<!DOCTYPE svg PUBLIC "-//W3C//DTD SVG 20010904//EN"
 "http://www.w3.org/TR/2001/REC-SVG-20010904/DTD/svg10.dtd">
<svg version="1.0" xmlns="http://www.w3.org/2000/svg"
 width="2000.000000pt" height="2000.000000pt" viewBox="0 0 2000.000000 2000.000000"
 preserveAspectRatio="xMidYMid meet">

<g transform="translate(0.000000,2000.000000) scale(0.100000,-0.100000)"
fill="#000000" stroke="none">
<path d="M13799 19542 c-43 -22 -59 -38 -81 -81 -27 -52 -28 -57 -28 -221 0
-144 2 -169 16 -174 9 -3 141 -6 295 -6 179 0 279 -4 279 -10 0 -7 -276 -10
-807 -10 -445 0 -835 -4 -868 -9 -130 -19 -233 -79 -314 -181 -50 -64 -81
-143 -94 -247 l-11 -83 -1240 -2 -1241 -3 -55 -26 c-63 -31 -120 -83 -157
-146 -18 -30 -30 -42 -42 -39 -35 11 -223 35 -361 47 -166 13 -414 7 -596 -16
-596 -74 -1148 -305 -1614 -675 -131 -105 -382 -355 -482 -480 -378 -476 -600
-995 -685 -1600 -24 -175 -25 -624 0 -798 25 -179 61 -348 107 -499 22 -73 40
-137 40 -142 0 -5 -17 -15 -37 -21 -21 -7 -63 -26 -94 -42 -55 -28 -57 -29
-124 -17 -37 6 -92 9 -123 5 -112 -13 -251 -104 -308 -202 -14 -23 -35 -45
-47 -48 -12 -3 -71 -6 -132 -6 -261 -1 -495 -64 -650 -175 -113 -80 -186 -194
-221 -342 l-18 -74 -70 -38 c-39 -22 -147 -79 -241 -129 -93 -49 -318 -168
-500 -264 -181 -97 -406 -216 -500 -265 -266 -141 -814 -432 -880 -467 -33
-18 -199 -106 -369 -197 -327 -173 -384 -213 -445 -307 -139 -217 -82 -514
127 -659 96 -67 160 -87 282 -87 129 0 141 4 420 152 429 227 597 316 665 352
39 21 185 98 325 173 140 74 361 191 491 260 130 69 352 187 495 262 142 76
265 142 272 148 7 5 14 8 16 6 5 -5 36 -123 33 -124 -48 -28 -84 -69 -114
-132 -33 -69 -35 -76 -24 -119 15 -59 94 -256 166 -414 32 -69 70 -153 85
-187 l28 -61 -150 -117 c-130 -101 -161 -121 -231 -145 -166 -56 -265 -101
-282 -127 -9 -14 -44 -38 -78 -53 -34 -16 -201 -91 -372 -168 -453 -205 -743
-342 -1020 -483 -316 -160 -435 -238 -435 -284 0 -9 -15 -35 -34 -58 -62 -76
-69 -105 -68 -272 2 -334 85 -1022 321 -2656 33 -228 74 -524 90 -656 40 -319
91 -542 154 -668 28 -57 45 -74 87 -85 l36 -10 41 -262 42 -263 -29 -190 c-17
-104 -59 -386 -95 -625 -37 -239 -109 -714 -160 -1055 -121 -794 -135 -883
-195 -1280 -27 -181 -52 -340 -55 -352 l-5 -23 -728 -2 c-683 -3 -727 -4 -730
-20 -3 -17 86 -18 1760 -19 970 0 3320 -2 5223 -5 1903 -2 5279 -1 7503 2
3706 6 4043 8 4040 23 -3 14 -76 17 -763 21 l-760 5 -420 83 c-231 46 -611
119 -845 163 -234 44 -622 118 -864 165 -241 46 -447 84 -457 84 -23 0 -24 -8
6 135 33 164 45 330 45 644 0 262 -9 475 -31 702 -10 108 -9 120 12 189 19 64
21 87 16 184 -5 93 -2 134 18 251 76 427 219 1356 264 1715 6 47 13 99 16 115
l5 30 1987 0 1988 0 56 26 c79 37 133 90 171 167 l33 67 0 6115 c0 6090 0
6115 -20 6169 -26 72 -100 152 -173 188 l-57 28 -1242 3 -1242 2 -6 58 c-23
225 -137 373 -335 438 -51 17 -115 19 -902 22 -535 2 -848 6 -848 12 0 6 107
10 279 10 154 0 286 3 295 6 23 9 23 317 0 372 -20 49 -60 90 -109 113 -38 17
-78 19 -651 19 l-612 0 -53 -28z m1330 -41 c58 -42 71 -85 71 -253 l0 -148
-289 0 c-314 0 -299 3 -297 -60 l1 -35 870 -5 c803 -5 873 -7 915 -23 153 -61
261 -187 290 -337 5 -29 10 -176 10 -326 l0 -274 -2236 0 -2236 0 4 308 c4
292 5 310 27 364 47 119 139 210 262 261 l54 22 870 5 870 5 0 45 0 45 -293 3
-293 2 3 163 c3 160 4 164 30 199 54 71 23 68 713 65 l620 -2 34 -24z m-2937
-1356 c1 -66 3 -126 6 -132 6 -18 4512 -19 4530 -1 8 8 12 53 12 135 l0 123
1105 0 1105 0 -2 -6067 -3 -6068 -1824 -3 c-1004 -1 -1828 1 -1831 5 -4 5 6
125 21 268 67 623 77 837 46 981 -28 129 -84 215 -176 269 -28 17 -51 33 -51
38 0 4 806 7 1790 7 l1790 0 0 310 0 310 -2171 0 -2171 0 -126 78 c-70 43
-147 89 -171 103 l-43 24 713 5 714 5 3 313 2 312 -967 0 -968 0 -42 108 c-24
60 -43 111 -43 115 0 4 1185 8 2633 9 2332 3 2632 5 2632 18 0 13 -299 15
-2620 18 l-2621 2 43 88 c45 90 101 253 124 355 l12 57 1356 0 c755 0 1362 4
1370 9 47 30 -12 31 -1359 31 l-1360 0 8 78 c8 89 9 245 2 350 l-5 72 2512 0
c1381 0 2519 3 2527 6 9 3 16 12 16 20 0 12 -374 14 -2530 14 -2016 0 -2531 3
-2534 13 -2 6 -14 55 -26 107 -25 107 -75 236 -126 322 l-33 58 337 2 c312 3
337 4 340 21 3 16 -19 17 -347 17 l-351 0 -72 73 c-48 48 -97 85 -143 109
-380 196 -1059 235 -1506 87 -130 -43 -344 -153 -484 -248 -29 -20 -44 -21
-413 -21 -360 0 -383 -1 -380 -17 3 -17 29 -18 356 -21 l352 -2 -51 -43 c-65
-52 -119 -129 -119 -169 0 -64 51 -121 180 -198 46 -28 95 -53 107 -56 13 -4
23 -12 23 -20 0 -12 -69 -14 -426 -14 -400 0 -425 -1 -422 -17 3 -17 32 -18
423 -20 231 -2 419 -7 418 -12 -8 -33 -21 -378 -16 -428 l6 -63 -417 0 c-392
0 -417 -1 -414 -17 3 -17 32 -18 420 -21 l416 -2 6 -34 c4 -18 38 -81 76 -139
39 -59 75 -118 80 -132 16 -41 11 -106 -10 -152 l-19 -43 -486 0 c-478 0 -485
0 -485 -20 0 -20 7 -20 476 -20 262 0 474 -3 472 -7 -39 -76 -72 -156 -76
-185 l-5 -38 -446 -2 -446 -3 0 -310 0 -310 178 -3 c172 -2 177 -2 177 18 0
19 -6 20 -160 20 l-160 0 0 275 0 275 435 0 435 0 44 -34 c24 -18 74 -44 111
-57 l66 -24 57 -95 c30 -52 89 -147 129 -211 40 -64 73 -119 73 -123 0 -3
-183 -7 -407 -8 -355 -3 -408 -5 -408 -18 0 -13 56 -16 427 -20 l427 -5 25
-34 c14 -19 25 -36 23 -37 -1 -1 -88 -32 -192 -68 l-191 -66 -547 0 -547 0 2
-307 3 -308 168 -3 c98 -1 167 -6 167 -12 0 -5 -21 -52 -47 -105 l-47 -94
-121 -3 -120 -3 -5 -170 -5 -170 -37 -6 c-20 -3 -43 -11 -51 -17 -8 -7 -33
-62 -57 -123 -42 -107 -46 -113 -96 -146 -51 -34 -53 -34 -83 -19 -40 21 -58
20 -73 -4 -7 -11 -16 -20 -20 -20 -5 0 -8 1212 -8 2694 l0 2693 83 33 c98 39
354 165 417 206 l45 29 4093 3 4092 2 0 309 c0 272 -2 310 -16 315 -9 3 -1034
6 -2278 6 -1945 0 -2265 -2 -2282 -14 -16 -12 -16 -16 -4 -20 8 -3 1034 -7
2280 -9 l2265 -2 0 -275 0 -275 -4032 -3 c-2218 -1 -4033 2 -4033 6 0 5 39 35
87 68 124 84 299 233 433 368 l115 116 1247 0 c714 0 1249 4 1252 9 19 30 -29
31 -1243 29 -671 -2 -1220 0 -1219 3 2 3 37 49 78 101 l75 97 2006 0 c1250 1
2009 5 2015 10 5 6 8 132 6 315 l-3 306 -1829 0 c-1007 0 -1830 2 -1830 5 0 2
13 37 29 77 350 886 276 1917 -199 2744 -351 611 -899 1093 -1544 1359 l-101
42 -3 43 c-2 23 -1 49 2 56 5 12 174 14 1106 12 l1101 -3 1 -120z m-3037 -320
c72 -8 167 -23 213 -31 l82 -17 0 -2598 c0 -2465 -1 -2598 -17 -2603 -50 -16
-266 -46 -398 -56 -210 -16 -446 0 -680 46 -433 85 -847 282 -1187 565 -164
136 -350 335 -441 469 -28 41 -63 91 -78 110 -48 61 -167 281 -220 405 -91
214 -159 449 -195 670 -21 135 -30 511 -15 657 63 608 334 1181 761 1608 157
158 248 232 420 346 362 239 782 389 1210 433 140 14 406 12 545 -4z m915
-270 c625 -315 1094 -860 1327 -1540 86 -254 123 -474 130 -771 7 -285 -13
-470 -77 -724 -47 -185 -141 -434 -206 -547 l-25 -43 -402 -2 -402 -3 0 -310
0 -310 168 -3 c92 -1 167 -6 166 -10 -1 -8 -182 -173 -206 -185 -8 -5 -37 -9
-63 -8 -56 1 -67 -9 -72 -63 -3 -37 -7 -41 -111 -106 -100 -63 -297 -170 -311
-170 -3 0 -6 1087 -6 2415 0 1643 3 2415 10 2415 6 0 42 -16 80 -35z m-4159
-3545 c16 -41 29 -76 29 -76 0 -1 -44 21 -97 48 -54 28 -98 53 -98 57 0 9 107
51 123 48 8 -1 27 -36 43 -77z m5264 -167 c-76 -131 -199 -302 -308 -425 l-68
-78 -175 0 -174 0 0 275 0 275 376 0 376 0 -27 -47z m4253 -225 l-3 -273
-1977 -3 c-1088 -1 -1978 0 -1978 2 0 3 20 33 44 68 60 86 172 285 221 390
l40 87 1828 1 1827 0 -2 -272z m-11328 -537 c0 -122 25 -239 101 -464 l69
-209 -29 -34 c-32 -36 -51 -89 -51 -141 0 -34 38 -12 -740 -423 -80 -42 -305
-162 -500 -265 -1073 -570 -1259 -667 -1300 -681 -66 -23 -168 -29 -231 -14
-351 83 -474 504 -221 757 48 48 191 127 1222 671 129 68 271 143 315 166 44
24 130 69 190 101 61 32 133 70 160 85 28 15 167 90 310 165 143 75 301 159
352 186 196 105 338 179 346 179 4 0 7 -35 7 -79z m1245 64 c77 -10 219 -59
465 -159 225 -91 225 -91 310 -90 69 1 103 7 180 34 52 18 112 41 133 52 22
11 41 18 43 16 8 -8 44 -258 54 -373 14 -155 7 -213 -46 -424 -61 -237 -65
-312 -29 -499 39 -205 34 -291 -23 -404 -69 -135 -324 -461 -490 -626 -108
-107 -174 -151 -239 -159 -109 -12 -286 58 -448 180 -91 68 -356 327 -453 442
-139 166 -179 248 -226 475 l-22 105 -60 31 c-59 32 -144 104 -144 123 0 6 40
34 89 63 92 53 111 75 111 129 0 42 -48 89 -90 89 -31 0 -111 -35 -163 -72
-16 -11 -29 -19 -31 -17 -10 13 -27 80 -32 134 -8 76 6 125 46 158 46 39 93
43 156 12 81 -40 130 -110 165 -237 25 -91 44 -118 80 -118 45 0 51 24 43 175
l-7 133 26 17 c15 9 61 26 104 37 90 23 119 37 153 73 l25 27 0 241 c0 263 5
291 61 364 39 51 121 86 184 78 14 -2 48 -7 75 -10z m5125 -95 c0 -5 -4 -10
-10 -10 -5 0 -10 5 -10 10 0 6 5 10 10 10 6 0 10 -4 10 -10z m-3913 -56 c9
-15 73 -78 142 -141 492 -450 1061 -723 1721 -825 197 -30 665 -33 860 -5 69
10 135 20 147 24 l23 5 0 -2954 c0 -1944 -3 -2957 -10 -2964 -17 -17 -14 -58
8 -99 12 -22 22 -45 22 -50 0 -6 -19 -20 -42 -32 l-43 -20 -115 111 c-116 112
-194 172 -240 183 -14 4 -61 -3 -106 -14 -117 -31 -425 -155 -502 -204 -37
-23 -68 -36 -70 -30 -10 30 -49 54 -167 101 -71 28 -144 59 -161 69 -17 10
-127 94 -245 186 -364 286 -494 388 -496 389 -3 2 -71 1561 -79 1831 -5 162
-2 224 19 425 38 345 50 527 46 691 -3 107 -8 151 -18 163 -37 44 -322 185
-838 416 -199 89 -233 107 -243 131 -7 15 -23 35 -36 44 l-24 15 21 53 c62
153 133 351 165 455 29 97 46 133 99 212 97 144 117 196 122 315 4 79 0 120
-17 195 -12 52 -24 138 -27 190 -6 103 7 178 67 400 31 115 31 116 26 305 -3
123 -12 231 -25 305 -11 63 -21 123 -21 133 0 25 17 21 37 -9z m-2309 -1056
c20 -20 14 -48 -18 -84 l-29 -34 25 -67 c196 -526 611 -1293 923 -1708 154
-206 398 -465 436 -465 36 0 407 815 511 1122 38 113 50 136 101 197 32 38 59
68 61 66 5 -5 -69 -217 -133 -380 -180 -457 -475 -1111 -507 -1121 -27 -8 -75
27 -204 153 -226 222 -442 510 -681 913 -219 369 -505 958 -593 1222 -27 81
-20 107 41 163 43 38 49 41 67 23z m190 -208 l23 -15 -12 -163 c-7 -89 -16
-162 -20 -162 -11 0 -186 407 -178 414 2 1 16 12 31 23 l27 20 53 -51 c29 -29
63 -58 76 -66z m91 -95 c27 -156 87 -317 152 -412 49 -71 157 -192 300 -338
117 -120 144 -155 335 -440 114 -170 214 -314 221 -320 22 -17 -7 -103 -66
-197 -84 -133 -74 -126 -113 -82 -76 86 -214 268 -297 389 -174 256 -420 688
-551 970 l-46 100 17 185 c10 102 18 191 18 198 1 6 5 12 10 12 5 0 14 -29 20
-65z m-58 -712 c92 -178 162 -304 225 -409 23 -39 84 -153 134 -253 l91 -183
-43 -47 c-24 -26 -86 -96 -139 -157 -249 -283 -269 -305 -274 -292 -5 14 -205
711 -306 1066 -58 204 -60 215 -42 227 10 7 72 56 138 108 66 52 123 96 127
96 3 1 43 -70 89 -156z m-226 -723 c472 -1647 711 -2510 779 -2810 74 -325
116 -666 123 -1004 5 -210 4 -248 -8 -244 -8 3 -103 45 -211 92 -109 47 -285
124 -390 169 -1032 447 -967 417 -973 451 -3 17 -21 186 -40 376 -36 351 -154
1501 -180 1754 -8 76 -17 141 -19 144 -3 2 -12 2 -21 -2 -12 -4 -15 -14 -10
-38 3 -18 30 -278 60 -578 31 -300 71 -691 90 -870 19 -179 46 -440 60 -580
14 -140 29 -258 33 -262 4 -4 131 -61 282 -127 878 -380 1347 -583 1515 -656
105 -45 303 -131 440 -190 138 -59 251 -109 253 -110 1 -1 -29 -96 -67 -211
-101 -304 -106 -334 -106 -611 l0 -233 -44 -15 c-89 -30 -72 -33 -1231 229
-1275 288 -2228 512 -2248 528 -64 53 -138 334 -182 688 -11 91 -68 496 -125
900 -203 1432 -253 1832 -286 2295 -19 266 -5 321 112 429 87 80 222 152 409
217 85 29 135 52 135 60 0 20 -40 14 -147 -22 -50 -17 -92 -28 -94 -26 -9 9
811 397 1306 618 178 80 252 118 270 139 18 21 61 44 150 79 163 63 153 60
169 58 10 -1 69 -193 196 -637z m1796 463 c-16 -43 -32 -85 -35 -93 -3 -8 -10
-27 -15 -42 l-10 -28 -53 21 c-29 11 -54 22 -56 24 -3 2 189 194 195 195 1 0
-10 -35 -26 -77z m-86 -193 c11 0 2 -28 -42 -131 -26 -60 -50 -105 -54 -101
-6 5 -14 234 -10 264 1 4 24 -1 51 -12 28 -11 53 -20 55 -20z m5497 -4 c207
-80 377 -126 464 -126 l34 0 -1 -68 c-1 -38 3 -78 10 -89 32 -61 123 -96 284
-109 l73 -7 17 -66 c25 -95 49 -131 87 -131 17 0 53 9 79 20 45 20 49 25 81
103 65 158 102 197 189 197 77 0 150 -93 187 -240 36 -144 0 -270 -108 -368
-94 -87 -128 -122 -128 -136 0 -25 70 -93 128 -124 89 -48 177 -65 307 -60 94
4 118 8 165 31 30 14 63 32 72 39 9 7 19 10 21 8 10 -12 118 -313 136 -380
l21 -75 -24 -33 c-110 -154 -963 -1142 -986 -1142 -14 0 -60 231 -105 534 -14
93 -23 171 -21 174 4 4 82 -155 128 -261 33 -75 49 -61 74 63 25 121 22 111
102 375 83 275 116 401 108 420 -9 25 -20 13 -81 -90 -36 -60 -74 -109 -103
-133 -72 -59 -256 -189 -299 -210 -48 -25 -281 -105 -351 -122 -51 -12 -54
-11 -79 11 -34 31 -176 247 -281 425 l-83 141 -52 16 c-29 9 -77 31 -107 49
-80 48 -80 69 6 250 102 212 99 245 -30 437 -64 96 -73 122 -82 246 -8 112 15
475 31 475 2 0 54 -20 117 -44z m-5655 12 c6 -7 13 -88 17 -179 l6 -167 -67
-145 c-38 -81 -70 -146 -73 -147 -3 0 -28 44 -56 98 l-52 97 43 213 c23 117
44 214 46 216 2 2 29 8 59 13 30 6 58 11 61 12 4 0 11 -5 16 -11z m339 -122
c11 -20 40 -108 64 -196 36 -133 47 -160 62 -160 24 0 24 5 -21 158 -27 92
-35 132 -26 132 7 0 37 -11 66 -24 610 -274 892 -411 926 -448 16 -18 18 -40
17 -237 0 -127 -8 -294 -18 -406 -29 -301 -27 -300 -65 -65 -64 399 -128 660
-163 660 -10 0 -18 -2 -18 -5 0 -2 13 -51 29 -107 50 -175 100 -433 140 -728
27 -192 29 -227 46 -635 8 -192 17 -408 20 -480 3 -71 21 -488 40 -925 19
-437 35 -810 35 -828 l0 -34 -107 57 c-390 206 -690 472 -879 780 l-64 105 82
295 c61 223 78 299 69 308 -7 7 -14 7 -20 1 -4 -5 -41 -129 -81 -277 -41 -147
-77 -264 -81 -260 -14 14 -100 215 -149 348 -38 102 -49 148 -54 215 -8 105
-31 532 -51 945 -8 171 -17 353 -20 405 -3 52 -15 283 -25 513 l-20 418 86
197 c47 108 98 225 112 260 14 34 31 61 36 59 6 -2 20 -20 32 -41z m-1104
-353 c34 -49 109 -143 165 -210 l103 -122 -27 -31 c-23 -28 -30 -31 -62 -25
-88 15 -193 123 -280 286 l-42 79 35 44 c20 23 36 48 36 55 0 20 8 12 72 -76z
m602 -171 l24 -47 -40 -78 -39 -78 -34 28 c-18 15 -34 32 -34 37 -2 18 84 194
92 189 4 -2 18 -25 31 -51z m206 -142 c0 -55 -3 -100 -7 -100 -9 0 -53 66 -53
79 0 13 49 121 55 121 3 0 5 -45 5 -100z m-1001 -67 l141 -107 24 -76 c14 -41
67 -203 118 -360 l93 -285 0 -1335 c0 -882 -3 -1336 -10 -1338 -6 -1 -12 90
-17 250 -6 255 -31 515 -69 743 -51 306 -132 616 -501 1920 -72 253 -131 465
-132 472 -2 19 187 234 201 229 7 -3 75 -53 152 -113z m977 -81 l32 -32 26
-538 c37 -748 55 -1095 61 -1177 8 -100 -7 -66 -48 115 -62 270 -117 616 -117
738 0 37 -18 241 -40 454 l-39 388 31 67 32 67 15 -25 c9 -13 30 -39 47 -57z
m-296 -77 c8 -9 28 -160 55 -413 30 -289 46 -405 58 -427 9 -16 17 -43 17 -60
0 -49 49 -371 76 -505 53 -260 136 -559 208 -748 30 -80 34 -102 45 -277 12
-179 27 -362 51 -625 6 -63 19 -238 28 -387 15 -233 16 -273 4 -273 -12 0
-127 46 -141 57 -2 1 10 37 27 79 l32 76 -45 252 c-24 138 -94 535 -155 881
-183 1042 -212 1208 -281 1591 -17 95 -49 608 -49 792 l0 43 28 -20 c16 -11
35 -27 42 -36z m140 -50 c0 -20 48 -497 55 -552 6 -39 4 -43 -15 -43 -12 0
-30 -5 -40 -10 -17 -9 -19 -5 -24 32 -10 72 -56 531 -56 554 0 22 7 25 68 33
6 0 12 -6 12 -14z m9768 -567 l-3 -273 -716 -3 -716 -2 -7 51 c-15 109 -81
200 -202 275 -42 26 -103 57 -136 69 -61 22 -61 22 -84 86 -13 35 -24 65 -24
67 0 1 425 2 945 2 l945 0 -2 -272z m-1732 51 c116 -55 213 -149 238 -231 15
-48 16 -66 7 -110 -43 -198 -328 -725 -676 -1247 -143 -213 -148 -221 -163
-221 -28 0 -197 253 -346 519 l-85 150 91 103 c244 276 798 932 829 983 13 21
17 40 13 63 -3 17 -3 32 0 32 4 0 45 -18 92 -41z m-1316 -379 c0 -6 -17 -17
-37 -25 -79 -33 -105 -75 -290 -470 -170 -364 -207 -476 -156 -483 22 -3 134
42 308 123 55 26 142 67 192 91 l93 43 10 -42 c28 -111 44 -122 100 -70 23 20
42 34 44 32 2 -2 34 -57 71 -122 143 -254 267 -445 331 -511 59 -60 79 -53
156 57 286 404 675 1083 749 1304 l21 63 29 -16 c149 -76 554 -343 723 -476
124 -96 325 -282 316 -291 -3 -3 -39 3 -81 13 -87 20 -252 40 -337 40 -55 0
-106 -20 -90 -35 4 -4 58 -8 121 -10 63 -2 159 -11 213 -20 294 -50 402 -130
450 -332 20 -82 22 -318 5 -498 -60 -620 -114 -1090 -174 -1510 l-32 -220 -85
-28 c-197 -67 -477 -105 -680 -93 -119 7 -339 41 -352 54 -4 4 -13 291 -18
637 -6 346 -13 632 -16 637 -3 4 -12 8 -20 8 -17 0 -18 -38 -4 -771 5 -294 12
-680 15 -859 l5 -326 -96 -74 c-54 -41 -150 -115 -215 -165 -65 -49 -252 -193
-416 -320 -164 -126 -332 -256 -373 -287 -41 -32 -140 -107 -220 -168 -80 -61
-182 -129 -227 -153 l-83 -42 -82 29 c-422 146 -946 398 -1033 496 -32 36 -26
104 17 182 l36 65 -44 454 c-115 1208 -110 1168 -142 1254 l-29 80 -18 455
c-9 250 -21 459 -26 464 -6 6 -13 6 -21 -2 -8 -8 -7 -114 6 -432 10 -232 16
-424 13 -426 -2 -2 -51 53 -108 123 -243 300 -513 608 -663 755 -49 48 -88 89
-85 91 2 2 24 18 49 34 42 28 50 41 89 140 24 59 48 114 53 121 7 8 38 12 89
12 51 0 80 4 85 12 5 7 59 118 121 248 134 276 277 547 342 645 44 67 50 72
146 120 109 54 304 129 590 226 133 45 197 61 245 63 60 3 252 60 370 109 35
15 50 14 50 -3z m18 -156 c20 -138 73 -477 79 -501 5 -24 -3 -28 -342 -183
-203 -92 -215 -97 -215 -76 0 21 99 253 181 424 39 81 95 197 124 257 60 123
110 181 150 171 6 -2 16 -43 23 -92z m-1013 -83 c-6 -5 -37 -18 -70 -31 -107
-39 -266 -109 -297 -131 -35 -26 -100 -124 -176 -269 -31 -58 -59 -107 -63
-110 -4 -3 -79 -4 -168 -2 l-161 3 0 268 c0 147 3 271 7 274 3 4 216 7 472 7
267 0 461 -4 456 -9z m7290 -269 l0 -272 -1795 0 -1794 0 -76 79 c-116 122
-346 306 -517 416 -35 22 -63 43 -63 48 0 4 955 6 2123 5 l2122 -3 0 -273z
m-8045 -567 c0 -3 -32 -73 -72 -155 -54 -113 -76 -150 -90 -150 -17 0 -18 11
-18 155 l0 155 90 0 c50 0 90 -2 90 -5z m-4546 -468 c38 -73 63 -134 59 -143
-3 -10 1 -17 13 -20 11 -3 40 -37 66 -77 199 -304 532 -585 934 -789 l122 -61
7 -184 c4 -101 6 -185 4 -187 -2 -2 -62 43 -133 100 -145 117 -380 257 -467
277 -29 7 -154 -50 -314 -143 l-90 -53 -79 17 c-44 9 -83 21 -86 27 -4 6 -10
72 -14 147 -8 176 -33 508 -51 687 -7 77 -19 217 -25 310 -6 94 -13 183 -15
199 -3 16 -3 28 -1 25 3 -2 34 -62 70 -132z m1558 -584 l353 -277 155 -64 c85
-36 156 -65 156 -66 1 0 4 -10 8 -21 5 -16 -4 -26 -39 -49 -49 -31 -68 -58
-85 -128 l-12 -45 -76 14 c-118 22 -346 82 -457 120 -103 36 -315 121 -327
132 -3 3 -11 125 -17 271 -6 146 -13 293 -16 328 -3 34 -4 62 -1 62 2 0 163
-125 358 -277z m1449 -240 c24 -17 107 -93 183 -168 l140 -138 -27 -23 c-39
-33 -100 -47 -192 -42 -97 5 -198 48 -287 121 -32 26 -65 47 -73 47 -25 0 -17
-26 15 -53 17 -14 30 -28 30 -30 0 -13 -103 -28 -144 -22 -38 6 -46 5 -46 -8
0 -21 72 -41 119 -32 20 3 52 13 72 21 35 15 36 15 108 -24 71 -39 73 -40 50
-53 -82 -43 -628 -53 -797 -14 -20 5 -23 10 -17 33 3 15 14 43 23 62 26 54
208 163 408 245 304 125 354 134 435 78z m470 -255 c100 -122 436 -493 562
-622 75 -76 134 -142 132 -146 -10 -16 -175 -90 -277 -124 -187 -61 -821 -198
-1483 -320 l-290 -53 -178 170 c-98 94 -174 173 -170 177 10 8 223 139 618
380 165 100 318 193 339 207 48 31 218 61 225 40 2 -6 21 -28 42 -49 81 -78
252 -76 388 5 98 58 138 160 91 232 -10 17 -45 44 -76 61 -32 17 -59 35 -61
40 -3 8 69 52 89 53 3 1 26 -23 49 -51z m-2096 -88 c168 -67 387 -130 593
-170 52 -10 95 -20 97 -22 2 -1 -1 -77 -5 -168 -5 -91 -9 -183 -10 -206 0 -38
-3 -43 -50 -72 l-51 -32 -177 22 -177 21 -30 46 c-32 49 -89 93 -145 112 -19
7 -68 39 -107 72 -72 59 -73 60 -73 107 0 26 -3 115 -7 199 l-6 153 39 -17
c21 -9 71 -29 109 -45z m-704 11 c161 -81 269 -153 449 -301 102 -83 198 -162
215 -174 29 -23 29 -23 12 -49 -21 -32 -28 -33 -98 -8 -282 100 -365 138 -461
209 -53 40 -104 72 -112 72 -36 0 -10 -30 87 -102 97 -72 114 -81 332 -163
291 -111 458 -193 480 -236 34 -64 -18 -133 -123 -166 -52 -17 -59 -16 -285
15 -265 37 -277 38 -277 17 0 -18 -2 -17 245 -51 110 -15 202 -29 204 -30 2
-2 -27 -38 -65 -80 l-68 -77 -136 7 c-74 3 -172 11 -218 18 -61 8 -86 8 -94 0
-23 -23 63 -39 327 -58 l80 -6 -63 -59 c-58 -55 -66 -59 -111 -59 -26 0 -97 9
-157 20 -130 24 -154 25 -154 6 0 -15 41 -27 184 -51 102 -17 130 -31 41 -20
-99 11 -239 44 -435 101 -195 57 -632 200 -664 216 -17 9 -18 19 -11 142 4 72
13 168 21 213 22 129 153 533 172 533 4 0 54 -10 112 -21 l105 -22 80 48 c94
56 284 155 298 155 5 0 45 -18 88 -39z m2763 -43 c70 -99 -93 -238 -278 -238
-71 0 -166 43 -166 75 0 21 93 39 131 26 51 -18 110 -13 166 14 80 36 106 92
78 159 -8 17 -6 17 23 2 17 -9 38 -26 46 -38z m-94 -18 c0 -25 -63 -78 -103
-85 -18 -4 -49 -5 -67 -3 -31 3 -35 6 -36 36 -2 31 -1 32 40 32 22 0 66 11 96
24 60 25 70 24 70 -4z m1620 -107 c22 -59 32 -154 144 -1321 l33 -343 -33 -62
c-61 -117 -55 -189 22 -255 44 -37 44 -38 30 -67 -8 -17 -37 -84 -66 -151
l-51 -121 -242 -73 c-415 -125 -980 -322 -1244 -433 l-61 -26 -314 60 c-172
33 -513 98 -758 144 -703 133 -712 134 -766 145 l-52 11 -11 57 c-38 196 -161
880 -161 897 0 13 66 80 196 200 271 249 248 232 343 250 l82 16 256 -248
c296 -288 317 -306 420 -366 91 -54 183 -90 302 -120 115 -28 372 -30 505 -4
351 71 682 271 860 519 121 171 290 630 411 1123 26 103 31 114 79 168 28 31
52 57 53 57 1 0 11 -26 23 -57z m-2580 -64 c79 -5 178 -7 220 -4 65 5 73 4 60
-8 -8 -8 -125 -81 -260 -162 -135 -81 -257 -156 -272 -166 -14 -11 -29 -19
-34 -19 -8 0 3 305 13 353 l6 30 61 -7 c34 -3 126 -11 206 -17z m2291 -308
c-70 -257 -170 -536 -263 -741 -91 -197 -292 -384 -543 -505 -117 -56 -220
-90 -358 -116 -145 -28 -356 -23 -487 11 -102 26 -264 103 -341 162 -31 24
-163 147 -293 275 -226 221 -236 231 -209 237 15 3 195 37 398 75 1031 195
1400 288 1583 401 49 30 50 30 81 13 29 -17 32 -17 68 2 20 11 80 61 133 110
190 180 265 246 268 236 2 -6 -15 -78 -37 -160z m-8203 20 c64 -17 432 -102
817 -191 385 -88 747 -171 805 -185 142 -33 511 -117 698 -159 85 -19 155 -36
156 -38 2 -2 -3 -82 -10 -178 -8 -96 -36 -488 -64 -870 -27 -382 -77 -1070
-110 -1528 -33 -459 -60 -840 -60 -848 0 -12 -200 -14 -1410 -14 l-1410 0 5
23 c3 12 36 231 75 487 38 256 106 704 150 995 44 292 128 841 185 1220 58
380 109 715 114 745 8 46 3 97 -30 304 -42 267 -42 266 -33 266 3 0 58 -13
122 -29z m5292 -176 c63 -9 119 -17 124 -18 4 -2 -27 -24 -69 -50 -42 -27 -81
-47 -85 -45 -10 4 -100 88 -119 111 -12 15 -11 17 11 17 13 0 75 -7 138 -15z
m7256 -47 c-3 -13 -10 -59 -16 -103 -46 -334 -181 -1117 -225 -1304 -57 -236
-137 -309 -515 -467 -203 -84 -415 -157 -855 -293 -269 -83 -960 -288 -1215
-361 -95 -27 -166 -54 -205 -78 -33 -19 -197 -121 -364 -225 -166 -103 -305
-186 -308 -184 -2 3 36 66 86 141 50 74 91 143 91 151 0 42 -40 -4 -153 -175
l-122 -184 -130 -82 c-127 -80 -165 -100 -165 -85 0 4 46 108 103 232 93 204
112 236 204 358 90 120 115 169 79 158 -6 -2 -57 -64 -113 -138 -96 -126 -109
-149 -214 -381 l-113 -248 -32 0 c-37 0 -84 34 -84 60 0 11 25 119 55 241 60
244 52 226 203 423 56 72 71 112 37 100 -12 -5 -144 -174 -202 -259 -11 -16
-37 -97 -57 -180 -73 -300 -73 -300 -113 -319 -32 -15 -38 -15 -59 -1 -45 29
-45 156 1 354 44 192 100 302 213 422 113 120 154 137 494 209 161 34 329 70
373 80 116 27 512 192 663 276 79 44 208 141 842 629 278 214 552 425 609 469
l104 80 -7 323 c-4 178 -5 323 -2 323 2 0 55 -9 118 -19 292 -50 603 -32 883
53 106 31 117 32 111 4z m-7366 -102 c9 -12 4 -19 -29 -40 -53 -34 -58 -33
-27 5 14 17 26 35 26 40 0 14 16 11 30 -5z m204 -200 c86 -81 156 -152 156
-155 0 -4 -33 -14 -74 -22 l-74 -14 -218 -201 c-269 -246 -353 -322 -380 -340
-33 -22 -121 -35 -244 -35 -136 0 -208 17 -283 65 -67 42 -222 172 -271 226
-32 36 -37 47 -32 73 19 96 80 81 231 -55 33 -30 71 -61 84 -68 43 -22 244
-91 255 -87 11 4 149 221 210 330 36 63 99 122 201 188 86 56 105 76 80 85
-17 7 -155 -82 -228 -146 -27 -24 -69 -79 -98 -129 -28 -47 -80 -132 -116
-188 l-65 -102 -91 33 c-51 19 -103 39 -117 44 -14 6 -60 42 -104 81 -91 82
-170 125 -210 115 -30 -7 -66 -48 -66 -75 0 -29 -12 -23 -54 27 -83 99 -131
204 -88 191 450 -131 561 -157 663 -157 46 0 71 6 98 22 58 35 164 134 273
253 111 121 135 134 248 135 44 0 64 6 100 30 25 16 48 29 52 27 3 -1 77 -69
162 -151z m-2024 -16 c12 -8 11 -10 -7 -10 -13 0 -23 5 -23 10 0 13 11 13 30
0z m318 -105 c46 -14 52 -19 52 -43 1 -93 179 -308 405 -490 163 -131 245
-158 460 -149 163 7 200 18 265 74 57 51 63 49 74 -21 4 -22 68 -372 142 -776
280 -1520 314 -1711 307 -1724 -5 -7 -46 -63 -92 -124 l-85 -112 -718 0 c-395
0 -718 3 -718 8 0 4 -11 259 -25 567 -27 595 -43 951 -80 1730 -3 61 -14 297
-25 525 -11 228 -22 445 -25 483 -4 37 -2 67 3 67 4 0 32 -7 60 -15z m8652
-1155 c-22 -96 -36 -115 -110 -149 -82 -38 -106 -40 -60 -3 19 15 50 43 68 62
36 37 101 160 104 195 0 11 3 4 6 -15 2 -19 -2 -60 -8 -90z m-3340 -26 c93
-46 171 -84 174 -84 3 0 29 -11 58 -25 85 -39 407 -165 439 -172 46 -9 43 -20
-8 -40 -27 -10 -50 -18 -53 -18 -3 -1 -18 -8 -35 -17 -102 -54 -322 -128 -480
-161 -348 -74 -410 -87 -454 -93 -25 -4 -82 -19 -126 -34 -120 -42 -133 -44
-231 -45 -94 0 -111 -7 -127 -49 -17 -44 33 -131 85 -148 8 -3 6 -13 -9 -34
-59 -83 -94 -180 -137 -375 -40 -178 -34 -274 21 -331 29 -30 88 -39 111 -16
9 9 16 5 31 -14 23 -29 86 -62 101 -53 6 3 10 4 10 1 0 -6 -181 -142 -192
-145 -5 0 -16 -9 -26 -18 -11 -10 -29 -26 -41 -36 -12 -10 -21 -23 -18 -30 8
-26 40 -16 109 36 40 30 87 63 103 73 17 11 64 44 105 75 41 31 98 69 127 85
29 16 176 107 328 202 158 100 280 170 286 166 7 -4 9 -3 6 3 -4 6 8 20 26 31
17 10 63 38 100 61 37 23 73 39 79 35 7 -4 8 -3 4 4 -4 6 13 22 41 39 26 15
55 33 64 38 88 52 209 102 344 141 88 25 180 52 205 59 86 26 217 65 490 146
l275 82 157 5 c224 7 510 -25 688 -78 38 -11 54 -2 48 26 -7 37 -297 91 -543
102 -138 6 -147 8 -110 19 154 46 448 141 540 175 61 22 115 41 120 42 6 2 35
14 65 28 86 39 239 95 310 113 78 20 197 63 226 81 21 13 22 11 28 -39 34
-298 41 -993 13 -1202 -37 -271 -147 -582 -267 -757 l-25 -37 -3377 -1 c-1858
0 -3378 2 -3378 5 0 3 21 32 48 66 26 33 54 71 62 82 126 183 522 612 685 742
27 22 61 50 75 63 26 24 152 119 182 137 9 6 49 32 89 59 104 70 250 146 434
228 88 38 185 81 215 95 129 58 867 327 923 336 12 2 35 9 51 16 16 7 73 25
125 41 53 16 157 48 231 70 74 23 152 47 173 53 24 6 42 18 47 31 9 25 47 110
97 218 l36 77 39 -25 c22 -14 116 -63 208 -110z m-3515 -419 c165 -31 509 -96
765 -145 256 -48 518 -98 583 -110 64 -12 117 -25 117 -29 0 -3 -26 -17 -58
-30 -324 -138 -583 -296 -817 -496 -115 -98 -340 -321 -461 -457 l-104 -117
-46 14 c-25 7 -48 15 -50 17 -5 5 -51 249 -164 868 -49 272 -93 508 -96 523
-5 25 -3 28 12 23 11 -3 154 -30 319 -61z m2915 -308 c0 -13 -116 -117 -130
-117 -30 0 -72 47 -68 78 3 27 4 27 93 33 50 3 93 6 98 7 4 1 7 0 7 -1z m4215
-1047 c149 -28 362 -68 475 -90 1335 -254 1631 -310 1655 -310 15 -1 17 -2 5
-8 -8 -4 -610 -6 -1338 -4 l-1323 2 26 43 c47 75 131 254 161 342 25 74 32 85
49 81 11 -2 142 -28 290 -56z m-7151 -56 c14 -5 13 -10 -6 -37 l-22 -31 -7 24
c-14 50 -6 60 35 44z"/>
<path d="M12347 18363 c-34 -33 -56 -33 2099 -33 2000 0 2105 1 2102 18 -3 16
-112 17 -2099 20 -1153 1 -2099 -1 -2102 -5z"/>
<path d="M14245 17406 c-242 -41 -445 -124 -645 -265 -92 -65 -266 -241 -335
-340 -307 -440 -355 -1001 -125 -1484 99 -209 280 -426 468 -560 166 -119 394
-215 602 -253 64 -12 147 -17 255 -18 180 0 313 21 470 74 766 259 1178 1086
924 1855 -163 494 -580 865 -1094 977 -118 26 -405 33 -520 14z m510 -54 c345
-75 641 -264 855 -547 204 -269 310 -635 280 -960 -35 -364 -168 -653 -415
-901 -212 -211 -462 -344 -755 -399 -131 -25 -380 -25 -510 0 -292 55 -545
189 -750 395 -126 126 -199 227 -273 375 -200 403 -203 857 -7 1260 69 141
140 244 250 359 229 240 505 383 838 436 95 15 384 4 487 -18z"/>
<path d="M14087 16983 c-4 -3 -7 -152 -7 -330 l0 -323 -325 0 -325 0 2 -377 3
-378 323 -3 322 -2 0 -325 0 -325 383 2 382 3 3 322 2 323 323 2 322 3 3 377
2 378 -322 2 -323 3 -5 325 c-3 179 -7 326 -8 328 -5 5 -749 1 -755 -5z m723
-358 c0 -179 3 -325 8 -326 34 -5 105 -7 355 -8 l287 -1 0 -340 0 -340 -322
-2 -323 -3 -3 -322 -2 -323 -345 0 -345 0 -2 323 -3 322 -322 3 -323 2 0 340
c0 220 4 340 10 340 6 0 145 0 310 0 165 1 307 3 315 6 13 5 15 51 15 330 l0
324 345 0 345 0 0 -325z"/>
<path d="M15555 13917 c-3 -7 -4 -147 -3 -312 l3 -300 1585 0 1585 0 3 313 2
312 -358 0 c-197 0 -361 -3 -365 -6 -3 -3 -3 -12 0 -20 4 -12 63 -14 349 -14
l344 0 -2 -272 -3 -273 -1552 -3 -1553 -2 0 275 0 275 1120 0 c1113 0 1120 0
1120 20 0 20 -7 20 -1135 20 -905 0 -1137 -3 -1140 -13z"/>
<path d="M10415 12247 c-3 -7 -4 -147 -3 -312 l3 -300 653 -3 652 -2 -2 312
-3 313 -648 3 c-516 2 -649 0 -652 -11z m1265 -302 l0 -275 -615 0 -615 0 0
275 0 275 615 0 615 0 0 -275z"/>
<path d="M11915 12247 c-3 -7 -4 -147 -3 -312 l3 -300 1705 0 1705 0 0 310 0
310 -1703 3 c-1365 2 -1704 0 -1707 -11z m1805 -302 l0 -275 -885 0 -885 0 0
275 0 275 885 0 885 0 0 -275z m1570 0 l0 -275 -760 0 -760 0 0 275 0 275 760
0 760 0 0 -275z"/>
<path d="M15555 12247 c-3 -7 -4 -147 -3 -312 l3 -300 1590 0 1590 0 3 290 c1
160 0 300 -3 313 l-5 22 -1586 0 c-1266 0 -1586 -3 -1589 -13z m3145 -302 l0
-275 -1555 0 -1555 0 0 275 0 275 1555 0 1555 0 0 -275z"/>
<path d="M14337 11043 c-4 -3 -2 -12 4 -20 10 -11 377 -13 2174 -13 1190 0
2170 3 2179 6 9 3 16 12 16 20 0 12 -324 14 -2183 14 -1201 0 -2187 -3 -2190
-7z"/>
<path d="M16682 9953 c3 -17 59 -18 1013 -18 954 0 1010 1 1013 18 3 16 -50
17 -1013 17 -963 0 -1016 -1 -1013 -17z"/>
<path d="M15555 9147 c-3 -7 -4 -147 -3 -312 l3 -300 1585 0 1585 0 3 313 2
312 -1585 0 c-1267 0 -1587 -3 -1590 -13z m3143 -299 l-3 -273 -1552 -3 -1553
-2 0 275 0 275 1555 0 1555 0 -2 -272z"/>
<path d="M15555 7477 c-3 -7 -4 -147 -3 -312 l3 -300 1590 0 1590 0 3 290 c1
160 0 300 -3 313 l-5 22 -768 -2 c-674 -3 -767 -5 -767 -18 0 -13 91 -15 753
-18 l752 -2 0 -275 0 -275 -1555 0 -1555 0 0 275 0 275 664 0 c560 0 665 2
669 14 3 8 3 17 0 20 -4 3 -312 6 -685 6 -537 0 -680 -3 -683 -13z"/>
<path d="M6303 12369 c-41 -20 -113 -89 -113 -108 0 -25 23 -18 62 20 74 70
116 81 221 54 42 -11 36 22 -8 41 -49 20 -113 17 -162 -7z"/>
<path d="M5339 12310 c-89 -15 -169 -63 -145 -87 4 -4 26 3 50 15 76 36 153
47 236 33 80 -13 183 -50 242 -88 57 -35 91 -27 52 12 -22 22 -119 70 -190 94
-69 23 -180 32 -245 21z"/>
<path d="M6092 12093 c-50 -107 -52 -158 -13 -359 70 -361 74 -412 35 -451
-24 -24 -31 -25 -89 -20 -93 7 -183 52 -256 128 -52 54 -79 67 -79 38 0 -20
111 -126 158 -152 57 -31 150 -57 205 -57 54 0 96 25 113 67 20 46 14 100 -41
409 -49 268 -49 274 6 389 29 61 31 85 8 85 -6 0 -26 -35 -47 -77z"/>
<path d="M6230 12098 c-41 -45 -50 -120 -20 -185 33 -73 91 -79 124 -15 62
120 -24 286 -104 200z"/>
<path d="M5532 12039 c-28 -11 -62 -81 -62 -129 0 -44 32 -115 58 -129 53 -28
106 36 106 129 1 90 -46 150 -102 129z"/>
<path d="M5294 11288 c-5 -7 18 -36 59 -74 105 -100 281 -174 410 -174 20 0
27 5 27 19 0 15 -10 19 -64 24 -126 12 -246 67 -359 166 -64 57 -63 56 -73 39z"/>
<path d="M3700 10563 c0 -32 4 -175 9 -318 6 -143 15 -435 22 -650 8 -263 15
-394 23 -401 6 -6 139 -66 296 -134 157 -67 287 -124 289 -126 2 -2 -21 -30
-50 -62 -301 -324 -399 -434 -399 -444 0 -10 300 -568 521 -968 32 -58 93
-170 137 -250 50 -92 85 -146 97 -149 14 -2 17 2 12 17 -2 12 -166 317 -363
679 -198 362 -359 661 -359 665 0 4 86 101 191 215 248 270 277 304 267 313
-4 5 -141 65 -303 136 -162 70 -298 130 -302 133 -4 3 -11 148 -17 321 -6 173
-13 371 -16 440 -2 69 -7 231 -10 360 -7 260 -9 280 -30 280 -12 0 -15 -13
-15 -57z"/>
<path d="M4722 6903 c5 -31 221 -422 235 -427 8 -3 16 0 19 8 7 19 -220 430
-241 434 -12 3 -16 -2 -13 -15z"/>
<path d="M3262 6850 c-130 -34 -277 -110 -376 -194 -53 -45 -144 -161 -175
-223 -17 -34 -18 -43 -7 -52 11 -9 22 3 55 59 125 210 321 335 619 396 12 2
22 11 22 19 0 20 -47 19 -138 -5z"/>
<path d="M2720 6734 c-84 -36 -170 -159 -205 -295 -24 -91 -45 -227 -38 -245
11 -29 28 -7 36 47 38 256 111 406 222 458 26 12 45 27 43 33 -6 18 -20 18
-58 2z"/>
<path d="M11545 9986 c-39 -17 -105 -90 -105 -116 0 -31 23 -23 52 20 48 69
93 80 226 54 26 -5 31 -4 26 9 -15 39 -138 60 -199 33z"/>
<path d="M11620 9790 c-38 -38 -20 -161 30 -212 34 -33 44 -34 70 -8 39 39 15
179 -37 220 -32 25 -38 25 -63 0z"/>
<path d="M12012 9206 c-39 -68 -98 -111 -189 -139 -45 -13 -73 -27 -73 -36 0
-19 80 -9 142 18 83 35 190 156 174 196 -10 26 -23 16 -54 -39z"/>
<path d="M6307 9803 c-4 -7 99 -399 123 -467 10 -28 6 -33 -90 -131 -55 -55
-100 -107 -100 -114 0 -7 6 -18 13 -25 108 -111 383 -400 385 -406 2 -5 -49
-199 -113 -431 -80 -292 -113 -425 -105 -433 6 -6 13 -7 20 0 9 9 240 840 240
866 0 7 -67 83 -148 168 -204 214 -242 256 -242 266 0 5 43 51 95 104 l95 95
-70 253 c-39 139 -70 255 -70 257 0 8 -28 6 -33 -2z"/>
<path d="M12431 7588 c-15 -46 -74 -308 -106 -468 -21 -103 -29 -176 -32 -306
l-5 -172 43 -25 c55 -31 106 -45 139 -37 21 5 28 16 42 75 18 68 61 387 74
543 6 77 5 82 -13 82 -18 0 -21 -19 -46 -242 -16 -134 -36 -281 -45 -328 -20
-99 -28 -105 -105 -69 l-49 24 5 150 c5 166 16 234 84 535 58 254 60 270 40
270 -9 0 -20 -15 -26 -32z"/>
<path d="M10963 7134 c-3 -8 -3 -68 0 -132 4 -64 7 -120 7 -124 0 -5 9 -8 21
-8 20 0 21 2 14 133 -4 72 -9 135 -12 140 -7 12 -23 8 -30 -9z"/>
<path d="M10420 6834 c0 -9 68 -98 151 -198 137 -164 189 -212 189 -174 0 20
-310 388 -326 388 -8 0 -14 -7 -14 -16z"/>
<path d="M10816 6361 c-7 -11 118 -166 140 -175 8 -3 17 1 20 9 4 9 -20 46
-62 95 -64 76 -86 92 -98 71z"/>
<path d="M13104 5415 c-7 -17 -8 -15 285 -350 183 -209 241 -262 241 -223 0 8
-48 68 -106 133 -59 66 -172 195 -251 288 -80 92 -149 167 -154 167 -5 0 -12
-7 -15 -15z"/>
<path d="M13703 4735 c-3 -9 -4 -18 -2 -20 2 -3 40 -41 84 -85 71 -71 115 -98
115 -70 0 12 -171 190 -182 190 -5 0 -11 -7 -15 -15z"/>
<path d="M11895 4198 c-125 -89 -299 -203 -387 -252 -38 -21 -68 -42 -68 -47
0 -24 35 -18 97 16 166 91 483 312 483 338 0 29 -22 20 -125 -55z"/>
<path d="M2809 3078 c-7 -18 -35 -355 -30 -360 7 -7 900 -128 949 -128 22 0
32 5 32 15 0 8 -1 15 -2 15 -2 1 -213 29 -470 64 -258 34 -470 64 -471 67 -5
5 23 282 28 287 2 2 342 -37 757 -88 414 -50 764 -92 778 -93 16 -1 25 4 28
15 4 20 58 13 -738 108 -366 44 -698 84 -738 90 -70 10 -121 13 -123 8z"/>
<path d="M3930 2590 c-11 -7 -12 -12 -4 -20 14 -14 405 -65 429 -56 40 15 -9
29 -181 52 -99 13 -190 26 -204 28 -14 3 -32 1 -40 -4z"/>
<path d="M7465 3265 c-57 -20 -91 -39 -93 -49 -5 -22 15 -20 100 10 118 41
128 46 128 60 0 21 -36 16 -135 -21z"/>
<path d="M6996 3101 c-149 -54 -274 -104 -279 -113 -7 -10 1 -62 28 -169 21
-85 42 -162 47 -171 10 -22 -7 -28 403 152 165 73 322 141 348 153 45 19 57
39 26 45 -8 1 -178 -69 -379 -157 -200 -88 -366 -158 -368 -156 -11 10 -71
280 -64 286 4 4 124 48 266 98 143 50 264 95 269 100 11 11 0 31 -16 30 -7 -1
-133 -45 -281 -98z"/>
<path d="M14586 3142 c-3 -6 12 -53 34 -106 46 -111 90 -255 90 -297 0 -37
-11 -42 -83 -40 -72 2 -117 -11 -145 -44 -39 -44 -30 -69 56 -153 97 -95 114
-120 114 -174 2 -74 -35 -130 -143 -224 -31 -27 -75 -71 -98 -99 -52 -63 -53
-64 -71 -100 -27 -52 -108 -147 -172 -200 -114 -93 -160 -125 -170 -119 -6 4
-8 2 -4 -4 3 -5 2 -12 -3 -14 -5 -1 -11 -12 -13 -23 -6 -37 30 -27 114 31 114
79 221 190 301 311 49 74 95 127 167 194 113 104 138 146 142 234 2 80 -16
115 -107 205 -108 105 -99 131 47 129 73 -1 84 1 100 21 38 47 19 155 -61 355
-37 94 -52 121 -68 123 -12 2 -24 -1 -27 -6z"/>
<path d="M14831 1964 c0 -11 3 -14 6 -6 3 7 2 16 -1 19 -3 4 -6 -2 -5 -13z"/>
<path d="M2218 18557 c-18 -18 -105 -121 -192 -228 -88 -107 -166 -200 -175
-207 -12 -9 -89 -12 -328 -12 -202 1 -319 -3 -332 -10 -51 -27 -51 -30 -51
-401 0 -334 1 -347 21 -372 34 -45 69 -49 416 -45 l323 3 32 33 33 32 3 261 3
260 224 271 c229 276 246 303 231 362 -3 14 -20 38 -37 55 -27 27 -38 31 -84
31 -48 0 -58 -4 -87 -33z m122 -12 c16 -8 34 -24 40 -34 24 -45 12 -68 -116
-223 -716 -867 -633 -773 -681 -776 -46 -3 -59 8 -207 183 -63 75 -76 96 -76
126 0 59 65 103 113 77 13 -7 52 -46 87 -85 34 -40 68 -73 76 -73 8 0 91 93
186 208 94 114 215 259 267 322 53 63 123 148 156 189 33 41 73 80 90 87 37
16 31 17 65 -1z m-532 -474 c-1 -5 -54 -71 -117 -146 l-114 -138 -66 72 c-72
79 -108 96 -165 80 -53 -15 -86 -60 -86 -119 0 -47 4 -54 77 -141 42 -50 102
-118 132 -150 51 -54 60 -59 98 -59 23 0 53 5 67 11 14 7 85 84 158 172 l133
161 3 -217 c3 -231 -1 -251 -44 -267 -14 -6 -165 -10 -339 -10 l-314 0 -28 24
-28 24 -3 306 c-3 326 2 375 40 394 28 13 601 16 596 3z"/>
<path d="M2367 17663 c-34 -33 -38 -33 1449 -33 1381 0 1455 1 1452 18 -3 16
-81 17 -1449 20 -795 1 -1449 -1 -1452 -5z"/>
<path d="M2239 17472 c-14 -9 -115 -125 -224 -257 -109 -132 -203 -243 -209
-247 -6 -4 -143 -7 -304 -7 -183 0 -299 -4 -312 -11 -49 -26 -50 -31 -50 -403
l0 -349 29 -29 29 -29 351 0 351 0 32 29 33 29 5 289 5 288 190 228 c241 290
255 309 262 350 7 45 -21 103 -58 122 -38 20 -98 19 -130 -3z m118 -37 c12 -9
25 -32 29 -51 8 -41 6 -43 -131 -209 -50 -60 -145 -175 -211 -255 -66 -80
-187 -225 -268 -323 -81 -98 -158 -182 -171 -187 -41 -16 -78 6 -146 88 -35
42 -85 100 -111 129 -39 43 -48 60 -48 90 0 51 32 83 81 83 32 0 44 -7 76 -42
94 -104 119 -128 128 -121 15 11 68 75 445 533 106 129 204 245 217 258 28 26
78 29 110 7z m-587 -511 c0 -4 -124 -159 -188 -234 -2 -3 -34 28 -70 68 -72
78 -103 94 -162 81 -55 -12 -90 -59 -90 -118 0 -55 8 -68 162 -241 62 -70 94
-98 122 -108 70 -23 93 -7 228 156 66 81 129 156 139 167 19 19 19 14 19 -227
0 -219 -2 -248 -17 -267 -18 -21 -23 -22 -357 -22 -331 0 -340 0 -360 21 -20
20 -21 31 -23 328 -2 326 3 377 40 392 24 10 557 14 557 4z"/>
<path d="M2371 16561 c-7 -5 -10 -14 -7 -20 5 -8 404 -11 1457 -11 1376 0
1450 1 1447 18 -3 16 -81 17 -1443 19 -810 2 -1446 -1 -1454 -6z"/>
<path d="M2251 16297 c-13 -6 -110 -116 -217 -244 l-193 -232 -322 -3 -321 -3
-29 -33 -29 -32 0 -351 0 -351 29 -29 29 -29 351 0 351 0 32 29 33 29 5 270 5
270 105 128 c58 70 156 189 218 263 63 75 118 146 123 159 40 102 -71 207
-170 159z m110 -56 c31 -31 36 -59 18 -93 -6 -11 -121 -153 -256 -316 -135
-164 -302 -366 -371 -450 -129 -157 -150 -174 -201 -156 -14 5 -76 68 -138
142 -97 114 -113 137 -113 168 0 62 65 103 119 75 9 -5 46 -44 80 -85 35 -42
70 -76 77 -76 7 0 43 37 80 83 38 45 120 145 184 222 64 77 180 218 259 313
78 94 152 179 164 187 33 23 66 18 98 -14z m-561 -467 c0 -3 -24 -34 -52 -68
-29 -34 -71 -84 -93 -111 -22 -27 -49 -60 -60 -73 l-20 -24 -54 64 c-80 96
-127 115 -197 82 -42 -20 -64 -59 -64 -111 1 -50 6 -58 133 -205 114 -133 144
-154 204 -145 45 8 70 32 208 201 61 75 114 135 118 136 4 0 7 -104 5 -231 -3
-215 -4 -232 -22 -245 -16 -11 -82 -14 -356 -14 -330 0 -337 0 -356 21 -18 20
-19 41 -19 356 l0 335 24 19 c22 18 43 19 312 19 159 0 289 -3 289 -6z"/>
<path d="M2365 15460 c-3 -5 -3 -14 0 -20 4 -7 500 -10 1456 -10 1376 0 1450
1 1447 18 -3 16 -81 17 -1450 20 -960 1 -1449 -1 -1453 -8z"/>
<path d="M2255 15110 c-25 -10 -51 -38 -235 -263 l-145 -176 -323 -1 c-352 0
-377 -3 -401 -56 -7 -17 -11 -133 -11 -369 l0 -344 24 -28 24 -28 352 -3 c311
-2 355 -1 377 13 47 31 53 66 53 311 l0 227 62 76 c35 42 127 153 205 248 174
209 193 237 193 278 0 38 -36 95 -70 112 -28 14 -75 16 -105 3z m103 -50 c31
-29 38 -68 20 -100 -8 -15 -65 -87 -126 -161 -480 -583 -617 -746 -639 -757
-49 -27 -76 -9 -198 134 -99 116 -115 139 -115 170 0 66 73 107 126 70 12 -8
47 -47 79 -85 31 -39 63 -71 70 -71 6 0 160 180 341 399 181 220 338 404 349
410 32 16 70 12 93 -9z m-530 -439 c-7 -20 -244 -301 -253 -301 -5 0 -32 28
-60 61 -55 67 -88 89 -135 89 -70 0 -120 -53 -120 -127 0 -47 10 -62 139 -212
111 -129 142 -149 206 -137 38 7 64 34 221 226 l99 121 3 -198 c2 -201 -4
-245 -35 -257 -8 -3 -163 -6 -345 -7 -324 -1 -331 0 -352 20 -20 21 -21 31
-24 334 -2 171 0 322 3 335 3 12 14 31 25 42 19 19 35 20 326 20 176 0 304 -4
302 -9z"/>
<path d="M2365 14360 c-3 -5 -3 -14 0 -20 4 -7 500 -10 1456 -10 1376 0 1450
1 1447 18 -3 16 -81 17 -1450 20 -960 1 -1449 -1 -1453 -8z"/>
<path d="M15973 4485 c-154 -33 -291 -142 -362 -287 -121 -244 -56 -503 204
-823 153 -187 742 -835 760 -835 7 0 25 15 40 33 15 17 53 59 84 92 141 152
567 629 628 705 l67 83 58 -173 c32 -96 62 -178 68 -184 7 -7 14 -6 21 1 6 6
62 149 125 318 62 169 115 309 117 311 2 2 34 -74 73 -169 46 -115 74 -173 85
-175 14 -2 49 78 174 392 86 218 160 396 164 396 3 0 67 -152 142 -337 109
-272 139 -338 154 -338 14 0 29 27 64 107 25 59 49 108 53 108 4 0 29 -42 54
-92 26 -51 52 -96 58 -100 6 -4 242 -8 524 -8 505 0 512 0 512 20 0 20 -7 20
-507 20 l-508 0 -60 112 c-33 61 -66 114 -73 116 -10 3 -67 -105 -104 -198 -7
-20 -11 -22 -18 -10 -4 8 -65 157 -135 330 -143 355 -141 350 -159 350 -9 0
-74 -152 -174 -402 -140 -353 -162 -400 -170 -378 -6 14 -36 90 -67 170 -58
147 -78 182 -93 165 -5 -6 -21 -44 -36 -85 -89 -247 -200 -540 -205 -540 -4 0
-30 70 -58 156 l-52 156 44 77 c59 102 90 180 111 281 49 242 -68 481 -290
590 -241 119 -520 49 -682 -171 l-36 -50 -27 43 c-40 62 -132 142 -206 179
-114 56 -237 71 -362 44z m248 -41 c129 -38 245 -128 308 -237 18 -32 37 -54
44 -51 7 2 23 26 37 52 54 101 181 198 309 236 218 64 476 -55 576 -265 77
-164 72 -311 -20 -504 -72 -153 -61 -160 -146 91 -50 147 -79 219 -88 219 -8
0 -67 -94 -135 -217 l-121 -218 -215 -2 c-183 -3 -215 -5 -215 -18 0 -13 32
-15 221 -18 196 -2 223 0 235 14 8 9 59 98 114 197 55 99 105 179 110 179 5 0
39 -89 75 -196 l65 -196 -18 -33 c-27 -50 -329 -394 -729 -831 l-54 -59 -60
64 c-57 60 -441 485 -585 649 -225 253 -338 474 -339 655 0 134 65 281 164
371 65 59 159 110 229 123 70 14 180 12 238 -5z"/>
<path d="M19417 1283 c-4 -3 -7 -12 -7 -20 0 -10 41 -13 205 -13 169 0 205 2
205 14 0 8 -7 17 -16 20 -21 8 -379 8 -387 -1z"/>
</g>
</svg>
