<?xml version="1.0" standalone="no"?>
<!DOCTYPE svg PUBLIC "-//W3C//DTD SVG 20010904//EN"
 "http://www.w3.org/TR/2001/REC-SVG-20010904/DTD/svg10.dtd">
<svg version="1.0" xmlns="http://www.w3.org/2000/svg"
 width="740.000000pt" height="740.000000pt" viewBox="0 0 740.000000 740.000000"
 preserveAspectRatio="xMidYMid meet">

<g transform="translate(0.000000,740.000000) scale(0.100000,-0.100000)"
fill="#000000" stroke="none">
<path d="M4436 6948 c4 -7 3 -8 -4 -4 -15 9 -124 -53 -115 -66 4 -7 1 -8 -6
-3 -8 4 -24 -1 -40 -11 -14 -11 -57 -35 -95 -54 -37 -19 -78 -44 -90 -55 -13
-11 -29 -21 -35 -23 -31 -7 -120 -65 -114 -74 3 -7 1 -8 -5 -4 -11 6 -72 -19
-72 -30 0 -2 10 1 23 7 17 9 19 9 11 -1 -6 -6 -22 -13 -35 -14 -33 -4 -161
-81 -152 -91 5 -4 3 -6 -2 -2 -15 8 -76 -23 -68 -36 4 -6 1 -7 -7 -2 -8 5 -18
1 -27 -10 -7 -11 -13 -16 -13 -12 0 4 -18 -2 -40 -13 -25 -13 -38 -25 -34 -32
4 -6 3 -8 -3 -5 -14 9 -175 -82 -167 -94 3 -5 -3 -6 -12 -2 -13 5 -15 3 -9 -7
5 -9 4 -11 -3 -6 -14 8 -55 -12 -47 -23 2 -5 -1 -8 -8 -7 -19 2 -207 -106
-201 -115 3 -5 -1 -7 -8 -4 -7 3 -29 -5 -48 -17 -19 -13 -68 -42 -110 -65 -41
-23 -74 -47 -72 -53 1 -6 -2 -9 -8 -5 -12 7 -91 -35 -85 -45 3 -4 -3 -7 -13
-6 -9 0 -16 -5 -14 -11 1 -7 -4 -14 -10 -14 -7 -1 -17 -2 -23 -3 -14 -2 -165
-86 -165 -92 0 -3 4 -2 10 1 6 3 10 1 10 -5 0 -7 -7 -10 -15 -6 -20 7 -46 -4
-38 -17 3 -6 1 -7 -5 -3 -15 9 -55 -18 -44 -29 4 -5 1 -5 -5 -1 -15 8 -96 -37
-86 -48 4 -4 0 -4 -8 -1 -9 3 -22 -1 -29 -10 -7 -8 -18 -15 -24 -15 -16 -1
-137 -76 -131 -82 3 -2 -1 -5 -8 -5 -24 0 -236 -126 -230 -136 3 -6 1 -7 -5
-3 -6 4 -41 -10 -77 -31 -42 -24 -60 -40 -52 -45 9 -6 8 -8 -3 -9 -8 -1 -19
-1 -23 0 -15 2 -67 -30 -67 -41 0 -6 -3 -8 -6 -5 -7 6 -54 -18 -159 -80 -27
-16 -58 -32 -68 -36 -10 -4 -16 -11 -13 -16 3 -5 -2 -8 -12 -7 -9 0 -16 -5
-14 -12 1 -8 -2 -11 -8 -7 -14 8 -70 -26 -63 -38 3 -6 1 -7 -6 -3 -15 10 -192
-94 -184 -107 3 -6 1 -7 -5 -3 -12 7 -116 -47 -107 -56 3 -2 -1 -5 -8 -5 -28
0 -127 -65 -146 -97 -21 -33 -21 -37 -21 -1505 0 -1432 1 -1473 19 -1509 21
-41 55 -62 99 -62 33 0 118 44 114 60 -1 6 4 10 11 8 21 -5 118 52 111 64 -4
7 -2 8 5 4 6 -4 43 11 84 35 39 23 98 55 129 72 32 17 54 35 51 41 -3 6 -3 8
2 4 7 -6 60 16 75 32 3 3 22 14 42 25 20 10 34 23 31 28 -3 6 -1 7 5 3 16 -10
54 12 46 26 -4 6 -3 8 4 5 15 -10 43 3 35 16 -3 5 -2 8 3 4 10 -6 33 6 323
174 110 64 198 119 196 122 -3 4 -2 5 1 2 4 -2 19 2 35 11 l29 15 0 -57 c0
-33 6 -67 16 -83 20 -34 509 -315 574 -330 64 -15 169 -13 224 3 59 18 587
320 632 362 32 30 34 35 34 97 0 79 -12 114 -42 127 -13 5 -19 9 -13 9 5 1 -1
8 -13 17 -12 8 -27 12 -34 8 -6 -4 -8 -3 -4 4 8 14 -50 43 -72 36 -13 -5 -14
-4 -3 4 11 8 9 11 -10 18 -13 4 -28 7 -34 5 -5 -1 -7 1 -3 5 11 10 -51 46 -65
38 -7 -4 -9 -4 -5 1 10 10 -31 40 -40 30 -4 -4 2 -13 12 -21 11 -7 18 -16 15
-18 -7 -8 -44 28 -44 43 0 8 -30 33 -66 54 -36 22 -72 50 -80 61 -18 29 -29
146 -12 146 6 0 15 5 19 12 5 7 3 8 -6 3 -8 -5 -11 -4 -6 3 4 6 12 9 19 7 7
-3 50 17 96 45 46 27 86 50 88 50 3 0 19 10 35 22 17 11 54 33 82 48 71 36 97
55 88 65 -4 4 0 6 9 2 9 -3 32 5 52 19 20 13 38 24 41 24 3 0 29 14 58 31 29
18 186 108 348 201 162 93 298 173 303 177 9 9 -11 71 -23 71 -5 0 -12 -5 -16
-12 -5 -7 -2 -8 7 -3 11 6 11 5 2 -5 -6 -7 -22 -14 -35 -15 -29 -4 -118 -53
-118 -66 0 -6 -4 -8 -9 -5 -4 3 -30 -9 -57 -26 -27 -17 -89 -53 -139 -81 -49
-27 -115 -66 -145 -85 -30 -20 -60 -37 -66 -38 -19 -3 -64 -36 -64 -46 0 -5
-4 -7 -9 -4 -13 9 -121 -56 -114 -67 3 -6 1 -7 -5 -3 -16 10 -54 -12 -46 -26
4 -7 3 -8 -4 -4 -10 6 -46 -8 -62 -24 -3 -3 -18 -12 -35 -21 -98 -52 -175
-101 -171 -108 3 -4 -5 -7 -17 -7 -13 1 -21 -4 -19 -12 1 -8 -2 -11 -7 -7 -15
9 -141 -66 -142 -85 0 -8 -3 -10 -5 -4 -3 8 -36 -5 -89 -34 -46 -25 -82 -49
-80 -52 2 -4 -2 -7 -9 -7 -24 0 -89 -45 -76 -53 8 -5 7 -9 -5 -13 -9 -4 -13
-3 -10 3 11 17 -8 11 -66 -23 -37 -21 -55 -37 -52 -47 4 -12 2 -12 -5 -2 -7
10 -26 3 -86 -33 -42 -25 -78 -45 -80 -45 -2 0 -35 -19 -72 -42 -38 -23 -94
-55 -124 -71 -83 -46 -121 -73 -112 -82 4 -5 1 -5 -5 -1 -12 7 -53 -15 -318
-169 -49 -29 -162 -94 -250 -145 -88 -51 -163 -98 -167 -104 -4 -6 -8 -7 -8
-3 0 4 -20 -4 -44 -18 l-43 -25 -42 22 c-23 12 -44 31 -47 43 -2 11 -3 534 -2
1162 3 1127 3 1142 23 1169 11 14 77 59 145 99 459 264 1090 628 1280 738 124
71 326 188 450 260 124 71 266 153 315 182 50 29 191 111 315 182 370 213 420
242 543 315 l117 69 0 219 c0 216 -8 278 -34 263 -6 -3 -8 -3 -4 2 12 13 -12
47 -28 41 -9 -3 -12 -1 -9 4 4 6 -14 10 -45 10 -36 0 -49 -3 -44 -12z m-2336
-1358 c-8 -5 -19 -10 -25 -10 -5 0 -3 5 5 10 8 5 20 10 25 10 6 0 3 -5 -5 -10z
m610 -2734 c0 -3 -4 -8 -10 -11 -5 -3 -10 -1 -10 4 0 6 5 11 10 11 6 0 10 -2
10 -4z"/>
<path d="M6024 4798 c-3 -4 0 -17 7 -29 11 -21 10 -22 -17 -16 -16 4 -39 9
-51 13 -28 8 -30 -11 -6 -64 9 -20 15 -57 14 -82 -1 -25 3 -58 8 -75 9 -30 9
-30 10 10 2 84 -4 80 149 80 l136 0 13 -65 c7 -36 15 -76 18 -89 l6 -24 29 31
c16 18 34 32 40 32 8 0 11 18 8 55 -3 47 0 55 15 55 21 0 22 16 1 24 -14 5
-14 9 -3 22 11 14 10 15 -11 12 -18 -2 -30 4 -42 23 -25 41 -92 67 -211 82
-59 7 -110 10 -113 5z"/>
<path d="M6017 4583 c-12 -12 -7 -22 8 -17 8 4 15 10 15 15 0 11 -14 12 -23 2z"/>
<path d="M6200 4571 c0 -5 7 -11 15 -15 9 -3 15 0 15 9 0 8 -7 15 -15 15 -8 0
-15 -4 -15 -9z"/>
<path d="M6030 4505 c0 -8 7 -15 15 -15 8 0 15 7 15 15 0 8 -7 15 -15 15 -8 0
-15 -7 -15 -15z"/>
<path d="M6170 4500 c0 -13 5 -20 13 -17 6 2 12 10 12 17 0 7 -6 15 -12 18 -8
2 -13 -5 -13 -18z"/>
<path d="M3540 4383 c-52 -30 -376 -217 -720 -416 -344 -198 -633 -367 -643
-375 -16 -14 -17 -40 -15 -331 l3 -315 40 -28 c22 -15 54 -27 70 -28 22 0 183
88 570 312 297 171 623 359 725 418 l185 107 0 323 0 324 -55 32 c-30 18 -57
33 -60 33 -3 0 -48 -25 -100 -56z m-92 -380 c5 -48 -33 -81 -208 -181 -85 -49
-258 -148 -385 -221 -235 -136 -254 -143 -264 -95 -4 24 24 76 52 94 25 15
226 132 547 317 119 68 224 122 235 121 14 -2 21 -12 23 -35z m-158 -278 c0
-8 -4 -15 -10 -15 -5 0 -10 7 -10 15 0 8 5 15 10 15 6 0 10 -7 10 -15z m78
-34 c2 -24 -2 -49 -7 -54 -8 -8 -11 1 -11 32 0 25 -4 40 -10 36 -5 -3 -10 -24
-10 -45 0 -21 -4 -42 -10 -45 -15 -9 -13 98 2 113 24 24 43 9 46 -37z m-78
-46 c0 -30 -4 -55 -10 -55 -5 0 -10 25 -10 55 0 30 5 55 10 55 6 0 10 -25 10
-55z m-40 -33 c0 -74 -16 -110 -44 -99 -20 8 -21 27 -2 27 8 0 17 4 20 9 3 5
-2 8 -12 7 -27 -2 -29 77 -3 103 34 34 41 25 41 -47z m-72 -20 c4 -37 -20 -82
-43 -82 -15 0 -20 17 -16 59 6 65 53 83 59 23z m-108 -38 c0 -49 2 -55 15 -44
17 15 30 7 22 -12 -5 -14 -55 -44 -60 -37 -8 9 6 149 14 149 5 0 9 -25 9 -56z
m-60 -23 c0 -5 -7 -14 -15 -21 -9 -8 -15 -30 -15 -56 0 -24 -4 -44 -10 -44 -5
0 -10 25 -10 55 0 41 4 56 18 64 21 13 32 14 32 2z m-71 -45 c28 -34 -13 -136
-43 -106 -21 21 -2 120 23 120 5 0 14 -6 20 -14z m-129 -75 c0 -63 -17 -109
-42 -117 -29 -9 -39 12 -36 75 4 77 28 82 28 6 0 -35 4 -54 10 -50 6 3 10 32
10 64 0 32 3 61 7 64 16 16 23 4 23 -42z m60 34 c0 -9 -7 -18 -17 -22 -14 -5
-13 -8 6 -15 17 -6 21 -13 16 -30 -8 -26 -34 -50 -46 -42 -16 9 -9 34 9 35 16
1 16 2 0 6 -23 6 -24 46 -2 67 20 20 34 20 34 1z"/>
<path d="M3217 3633 c-11 -10 -8 -43 3 -43 6 0 10 11 10 25 0 26 -2 29 -13 18z"/>
<path d="M3140 3569 c0 -17 4 -28 10 -24 6 3 10 17 10 31 0 13 -4 24 -10 24
-5 0 -10 -14 -10 -31z"/>
<path d="M4026 4399 c-14 -11 -34 -35 -42 -52 -20 -37 -23 -120 -5 -141 10
-12 10 -33 1 -106 -7 -50 -10 -94 -7 -96 3 -3 35 12 71 33 l67 38 -8 60 c-9
79 -8 119 8 182 11 45 11 54 -4 77 -21 31 -45 33 -81 5z"/>
<path d="M6312 4355 c-2 -42 2 -43 24 -9 15 22 15 27 3 35 -22 14 -26 11 -27
-26z"/>
<path d="M6020 4223 c-41 -15 -114 -108 -209 -270 -48 -80 -47 -88 13 -141 45
-40 74 -48 94 -29 12 13 17 53 23 177 9 179 18 206 79 247 32 22 32 28 0 16z"/>
<path d="M6376 4189 c-8 -14 -20 -49 -26 -79 -6 -30 -25 -112 -42 -182 -27
-110 -29 -130 -17 -144 20 -25 89 -54 127 -54 39 0 42 6 77 143 58 227 40 320
-63 334 -34 5 -42 2 -56 -18z"/>
<path d="M4505 3960 c3 -5 8 -10 11 -10 2 0 4 5 4 10 0 6 -5 10 -11 10 -5 0
-7 -4 -4 -10z"/>
<path d="M4570 3926 c0 -3 9 -10 20 -16 11 -6 20 -8 20 -6 0 3 -9 10 -20 16
-11 6 -20 8 -20 6z"/>
<path d="M4620 3896 c0 -3 9 -10 20 -16 11 -6 20 -8 20 -6 0 3 -9 10 -20 16
-11 6 -20 8 -20 6z"/>
<path d="M4700 3846 c0 -2 7 -7 16 -10 8 -3 12 -2 9 4 -6 10 -25 14 -25 6z"/>
<path d="M4810 3786 c0 -3 9 -10 20 -16 11 -6 20 -8 20 -6 0 3 -9 10 -20 16
-11 6 -20 8 -20 6z"/>
<path d="M4950 3706 c0 -3 14 -12 30 -21 17 -9 30 -13 30 -11 0 3 -13 12 -30
21 -16 9 -30 13 -30 11z"/>
<path d="M4720 3665 c-11 -13 -10 -14 4 -9 9 3 16 10 16 15 0 13 -6 11 -20 -6z"/>
<path d="M5020 3666 c0 -3 9 -10 20 -16 11 -6 20 -8 20 -6 0 3 -9 10 -20 16
-11 6 -20 8 -20 6z"/>
<path d="M5097 3619 c7 -7 15 -10 18 -7 3 3 -2 9 -12 12 -14 6 -15 5 -6 -5z"/>
<path d="M5140 3596 c0 -3 14 -12 30 -21 17 -9 30 -13 30 -11 0 3 -13 12 -30
21 -16 9 -30 13 -30 11z"/>
<path d="M5210 3556 c0 -3 9 -10 20 -16 11 -6 20 -8 20 -6 0 3 -9 10 -20 16
-11 6 -20 8 -20 6z"/>
<path d="M4999 3533 c-13 -15 -12 -15 11 -3 34 17 36 20 18 20 -9 0 -22 -7
-29 -17z"/>
<path d="M5267 3519 c7 -7 15 -10 18 -7 3 3 -2 9 -12 12 -14 6 -15 5 -6 -5z"/>
<path d="M5944 3367 c4 -12 9 -66 13 -119 6 -100 -7 -199 -33 -249 -27 -53
-22 -368 10 -684 16 -154 32 -284 36 -289 13 -13 92 -9 105 6 8 8 19 95 29
223 9 116 18 224 20 241 2 16 0 63 -4 104 -6 55 -2 127 16 289 13 119 24 233
24 253 0 20 4 39 8 42 5 3 21 -124 36 -281 35 -363 130 -1033 148 -1044 15
-10 54 -11 84 -3 21 6 22 13 30 232 11 305 9 469 -5 517 -8 29 -9 140 -5 407
l7 368 -54 -19 c-113 -40 -297 -36 -421 10 l-50 18 6 -22z"/>
<path d="M5667 3328 c-23 -12 -23 -101 1 -148 38 -76 109 -76 99 -1 -15 108
-59 172 -100 149z"/>
<path d="M5938 1969 c-15 -14 -71 -46 -123 -70 -78 -36 -95 -48 -93 -64 7 -49
106 -59 198 -20 34 14 79 25 105 25 84 0 98 21 74 115 -10 39 -14 43 -29 35
-22 -12 -97 -13 -102 -2 -1 4 -15 -5 -30 -19z"/>
<path d="M6318 1780 c-14 -30 -51 -81 -82 -113 -67 -68 -71 -92 -19 -113 66
-28 159 13 188 83 8 19 29 51 46 70 27 31 30 40 24 77 -9 50 -9 50 -33 37 -28
-15 -89 -14 -94 1 -3 7 -16 -12 -30 -42z"/>
</g>
</svg>
