<?xml version="1.0" standalone="no"?>
<!DOCTYPE svg PUBLIC "-//W3C//DTD SVG 20010904//EN"
 "http://www.w3.org/TR/2001/REC-SVG-20010904/DTD/svg10.dtd">
<svg version="1.0" xmlns="http://www.w3.org/2000/svg"
 width="7293.000000pt" height="5209.000000pt" viewBox="0 0 7293.000000 5209.000000"
 preserveAspectRatio="xMidYMid meet">

<g transform="translate(0.000000,5209.000000) scale(0.100000,-0.100000)"
fill="#000000" stroke="none">
<path d="M24597 35381 c-78 -219 -425 -415 -842 -475 -248 -35 -423 -29 -663
25 -437 98 -815 71 -1124 -81 -211 -104 -360 -250 -454 -445 -41 -84 -94 -259
-94 -310 0 -16 -12 -27 -52 -46 -126 -58 -243 -223 -296 -417 -25 -92 -26
-109 -26 -337 0 -184 4 -261 17 -330 9 -49 17 -127 17 -171 0 -96 14 -245 36
-397 l17 -108 31 8 c17 4 69 8 116 8 76 -1 92 -4 150 -34 93 -48 176 -136 227
-242 23 -46 44 -99 48 -117 4 -19 21 -57 38 -84 l32 -51 7 44 c4 24 14 150 23
279 33 479 81 726 177 913 83 160 176 227 346 248 123 16 292 2 691 -56 494
-71 643 -86 913 -92 481 -11 771 43 1138 212 167 76 253 131 333 212 187 187
239 447 156 777 l-21 85 -74 -59 c-157 -125 -318 -171 -488 -139 -32 6 -70 15
-83 20 l-24 9 19 28 c92 130 123 380 73 577 -27 105 -75 218 -138 323 -44 76
-154 222 -190 254 -18 16 -19 15 -36 -31z"/>
<path d="M46920 34753 c-831 -63 -1442 -531 -1719 -1317 -119 -336 -168 -696
-158 -1140 8 -333 36 -553 118 -918 57 -256 71 -368 71 -563 1 -188 -14 -300
-62 -481 -62 -234 -176 -471 -452 -939 -208 -353 -280 -485 -378 -688 -258
-537 -404 -1079 -465 -1721 -18 -187 -19 -348 -4 -466 82 -661 507 -1218 1206
-1582 l118 -61 7 284 c31 1337 325 2626 718 3147 97 129 107 129 46 1 -93
-197 -160 -430 -187 -654 -23 -187 0 -600 52 -945 87 -577 309 -1313 565
-1874 l63 -140 -14 -97 c-29 -190 -20 -450 54 -1723 39 -659 72 -1200 73
-1201 2 -1 552 520 1223 1157 1092 1038 1455 1382 1719 1629 l81 76 -92 284
c-302 932 -507 1769 -583 2380 -63 508 -44 868 56 1087 45 99 81 141 177 210
256 184 498 272 749 272 177 0 319 -37 459 -120 143 -85 198 -158 280 -373 44
-115 48 -108 19 33 -55 268 -167 478 -360 670 -161 162 -346 290 -562 390
l-98 45 0 38 c0 136 -67 660 -134 1057 -52 309 -66 438 -66 604 1 124 3 151
39 393 49 326 65 731 40 1020 -95 1140 -712 1915 -1714 2153 -275 65 -615 93
-885 73z m-209 -1513 c107 -135 297 -330 426 -437 436 -359 955 -544 1411
-503 106 9 266 42 325 65 16 7 17 -5 17 -168 0 -205 -11 -328 -46 -527 -78
-433 -263 -851 -508 -1144 -36 -43 -66 -82 -66 -85 1 -9 186 -748 269 -1071
39 -151 70 -293 71 -315 0 -193 -426 -585 -1188 -1093 -125 -83 -206 -132
-212 -126 -15 15 -176 373 -245 546 -138 341 -148 392 -160 803 -8 279 -24
680 -31 743 -3 28 -10 52 -15 52 -6 0 -56 18 -112 40 -247 96 -467 259 -655
485 -106 127 -182 246 -271 425 -178 358 -271 772 -271 1201 l0 149 28 0 c15
0 66 9 113 19 460 102 797 441 1019 1025 6 16 12 27 14 25 2 -2 41 -51 87
-109z"/>
<path d="M46157 32359 c-55 -32 -76 -200 -37 -286 54 -121 152 -44 152 120 1
131 -50 204 -115 166z"/>
<path d="M47824 32273 c-60 -61 -68 -237 -13 -307 25 -31 68 -34 93 -7 59 65
62 249 6 309 -25 26 -62 28 -86 5z"/>
<path d="M47011 31861 c-122 -309 -136 -423 -55 -457 66 -28 249 -8 249 26 0
10 -8 14 -25 12 -134 -15 -191 -14 -216 3 -25 16 -26 20 -20 74 7 62 78 278
125 384 17 38 28 73 25 78 -17 27 -36 -1 -83 -120z"/>
<path d="M47955 31094 c-123 -58 -334 -128 -485 -159 -166 -35 -455 -45 -600
-21 -52 8 -96 13 -98 11 -11 -11 102 -179 167 -247 57 -60 91 -87 150 -116 71
-35 80 -37 170 -36 77 1 109 6 161 26 128 50 238 128 372 265 101 103 267 308
257 317 -2 2 -44 -16 -94 -40z"/>
<path d="M23227 32400 c-37 -29 -62 -103 -61 -181 0 -74 23 -124 67 -149 24
-13 28 -13 54 6 45 33 65 79 71 155 5 79 -15 149 -51 174 -29 20 -49 19 -80
-5z"/>
<path d="M24578 32313 c-36 -39 -51 -94 -46 -169 5 -78 30 -117 76 -122 95
-10 140 210 60 295 -29 31 -59 29 -90 -4z"/>
<path d="M24044 32006 c-9 -24 13 -164 46 -291 33 -126 77 -239 150 -385 75
-150 70 -199 -28 -261 -53 -34 -101 -49 -154 -49 -48 0 -148 32 -187 60 -35
24 -61 21 -61 -9 0 -15 17 -28 63 -50 161 -77 299 -64 411 39 85 78 82 133
-15 330 -97 199 -133 310 -167 518 -14 84 -21 108 -35 110 -9 2 -20 -4 -23
-12z"/>
<path d="M22685 31188 c21 -216 95 -397 234 -570 71 -90 226 -239 307 -295
l60 -42 110 65 c60 36 151 88 203 117 84 45 92 52 70 58 -314 91 -474 167
-656 313 -118 95 -234 240 -290 362 -33 72 -45 69 -38 -8z"/>
<path d="M33213 30619 c-75 -29 -154 -104 -187 -180 l-28 -61 -229 -2782
c-127 -1529 -230 -2815 -231 -2856 -2 -123 49 -211 157 -268 l50 -27 4095 0
4095 0 55 28 c97 50 167 134 190 227 9 39 74 818 416 4990 l57 695 -18 58
c-21 67 -78 138 -139 170 l-41 22 -4095 2 c-4085 2 -4095 2 -4147 -18z m7999
-446 c-1 -21 -95 -1194 -207 -2608 -112 -1413 -207 -2594 -210 -2622 l-6 -53
-3895 0 c-2142 0 -3894 3 -3894 8 0 4 95 1190 210 2636 116 1446 210 2640 210
2653 l0 23 3898 0 3898 0 -4 -37z"/>
<path d="M16284 30531 c-56 -25 -87 -72 -91 -135 -3 -43 11 -96 90 -336 l94
-285 178 -3 c140 -2 176 0 172 10 -2 7 -39 121 -80 253 -42 132 -90 282 -107
334 -32 101 -62 143 -117 167 -44 19 -90 17 -139 -5z"/>
<path d="M18229 30521 c-49 -31 -79 -85 -79 -141 0 -17 40 -153 89 -303 49
-149 92 -282 96 -294 6 -23 8 -23 181 -23 104 0 174 4 174 10 0 5 -24 85 -54
177 -30 92 -78 242 -106 333 -29 91 -61 179 -71 197 -11 17 -39 41 -63 52 -60
30 -112 27 -167 -8z"/>
<path d="M22575 29927 c33 -19 188 -102 343 -186 l284 -152 91 49 c166 90 459
251 463 255 2 2 -33 -4 -78 -14 -418 -91 -663 -74 -1148 78 -8 3 12 -11 45
-30z"/>
<path d="M21049 29888 c-285 -190 -491 -484 -578 -826 -84 -329 -87 -927 -6
-1567 13 -99 12 -111 -2 -120 -60 -39 -59 -35 -40 -126 9 -46 17 -87 17 -90 0
-3 -28 -20 -62 -38 -35 -18 -79 -45 -98 -61 -35 -29 -35 -29 -18 -57 17 -29
17 -30 -10 -45 -97 -59 -217 -188 -297 -323 -140 -234 -210 -518 -222 -900
-11 -384 41 -767 162 -1190 41 -143 125 -383 145 -415 8 -13 31 -12 186 8 98
12 184 27 191 34 21 17 16 66 -9 82 -20 13 -39 12 -156 -3 l-134 -18 -18 42
c-32 74 -101 296 -140 450 -129 503 -155 1001 -75 1401 68 337 210 587 414
729 39 26 42 27 60 11 17 -15 22 -14 92 19 107 50 188 68 304 68 87 0 124 -5
208 -29 14 -4 17 1 17 30 0 44 1 44 116 10 325 -94 581 -342 783 -759 205
-421 342 -1008 396 -1694 l7 -84 -105 6 c-124 7 -150 -4 -145 -56 4 -46 32
-54 206 -59 l152 -5 0 97 c0 199 -53 637 -111 918 -80 391 -200 750 -335 1002
-167 312 -393 551 -630 669 -86 42 -222 88 -291 98 -42 6 -43 7 -43 44 0 21
-4 40 -9 44 -6 3 -61 10 -123 16 -62 6 -115 13 -117 15 -3 2 -12 43 -21 92
l-16 87 -55 11 -54 10 -7 50 c-21 146 -49 482 -60 697 -18 388 9 721 78 937
82 259 253 505 458 655 63 46 64 48 79 118 9 40 14 73 13 75 -2 1 -46 -25 -97
-60z"/>
<path d="M23453 29574 c3 -10 13 -55 22 -99 13 -64 24 -87 50 -115 86 -93 204
-274 276 -425 96 -204 152 -400 189 -666 79 -568 127 -1237 137 -1904 l6 -420
-61 -13 c-267 -55 -466 -552 -376 -941 55 -242 216 -347 387 -254 45 25 157
133 157 152 0 5 -17 11 -38 14 -73 12 -131 101 -152 232 -18 113 10 276 66
386 50 100 145 178 217 179 15 0 27 5 27 10 0 22 -54 117 -85 150 l-33 35 -5
415 c-10 679 -47 1231 -122 1837 -36 286 -67 447 -116 598 -63 193 -174 409
-291 566 -65 87 -191 228 -232 260 -26 21 -28 21 -23 3z"/>
<path d="M22729 27940 c-46 -28 -95 -59 -109 -70 l-25 -19 74 -107 73 -106
-51 -2077 c-28 -1142 -53 -2141 -57 -2220 l-6 -144 24 5 c12 3 70 16 128 28
75 17 140 23 230 24 l125 1 269 -78 c148 -43 274 -76 281 -75 7 2 -111 765
-352 2268 l-362 2265 36 135 c20 74 36 139 37 144 1 5 -51 24 -114 42 -63 18
-115 33 -116 34 0 0 -38 -23 -85 -50z"/>
<path d="M36760 24417 c0 -14 226 -1976 235 -2044 l6 -43 -1156 0 -1156 0 3
-127 3 -128 1878 -3 1877 -2 0 126 c0 100 3 129 15 138 12 10 -2 149 -105
1046 -66 569 -120 1038 -120 1043 0 4 -333 7 -740 7 -594 0 -740 -3 -740 -13z"/>
<path d="M26290 23768 c-57 -47 -195 -139 -347 -231 l-143 -85 153 -93 c784
-476 1767 -1059 2012 -1193 184 -101 169 -97 342 -94 l152 3 -1045 845 c-575
465 -1055 852 -1067 861 -21 16 -24 16 -57 -13z"/>
<path d="M50580 23309 c-488 -464 -1262 -980 -2325 -1549 -238 -127 -1000
-505 -1282 -635 l-211 -98 82 -81 c118 -116 156 -202 125 -283 -59 -158 -466
-244 -736 -157 l-51 16 -63 -35 c-179 -99 -395 -167 -531 -167 -91 0 -133 14
-171 59 -56 67 -55 145 3 260 71 141 299 373 523 531 26 18 47 37 47 40 0 21
-44 110 -55 110 -18 0 -536 -176 -810 -275 -1226 -444 -2179 -912 -2685 -1318
-58 -47 -153 -134 -211 -193 -253 -261 -303 -410 -316 -949 -27 -1097 257
-3490 832 -7030 101 -621 381 -2264 411 -2407 5 -25 3 -28 -20 -28 -76 0 -564
-111 -771 -175 -358 -111 -564 -247 -565 -372 l0 -23 195 0 c167 0 195 -2 195
-15 0 -20 1 -20 70 15 201 101 570 217 848 266 83 14 101 20 98 33 -3 9 -12
59 -21 111 -8 52 -18 107 -21 121 l-5 26 61 -13 c171 -35 301 -48 495 -48 110
-1 220 0 245 2 25 2 64 -3 87 -12 83 -31 181 -39 408 -33 279 7 483 40 596 98
l40 20 -5 -23 c-3 -13 -10 -54 -16 -93 -6 -38 -13 -83 -16 -100 -4 -26 -3 -27
7 -11 10 16 23 -5 104 -160 l93 -179 561 -3 561 -2 0 -285 c0 -273 -1 -288
-25 -370 -88 -305 -21 -664 158 -847 98 -100 200 -130 447 -131 232 -2 328 30
436 145 67 72 111 154 150 283 26 84 28 102 28 270 0 167 -2 186 -27 268 -15
48 -43 120 -63 158 -44 88 -150 200 -214 228 -58 25 -196 51 -271 51 l-59 0 0
115 0 115 2056 -2 2057 -3 1 -112 1 -113 -90 0 c-99 0 -253 -28 -306 -55 -19
-10 -64 -48 -100 -84 -76 -76 -124 -163 -166 -298 -25 -82 -27 -101 -27 -268
0 -167 2 -186 27 -268 38 -123 90 -221 153 -287 107 -112 205 -144 434 -143
246 1 348 31 447 131 87 88 143 204 179 367 13 59 16 156 14 603 l-1 532 40 0
c47 0 52 14 25 78 -108 261 -1014 501 -2394 637 -514 50 -1163 90 -1650 100
-146 3 -293 8 -327 11 l-63 6 0 669 0 669 -130 0 -130 0 0 2020 c0 1111 0
2023 0 2028 0 4 58 8 130 10 l130 3 0 739 0 740 188 0 c199 0 652 13 1047 30
1784 77 3228 254 3635 446 86 41 140 87 140 122 0 23 -1 23 -92 19 -53 -2
-147 -16 -218 -33 l-125 -29 -330 1 c-181 0 -555 6 -830 12 -683 16 -1677 30
-3014 42 -618 6 -1126 12 -1129 15 -2 2 8 74 23 159 l28 156 76 29 c1161 446
2619 973 3421 1236 300 98 407 147 585 266 185 124 382 332 499 526 124 208
216 480 263 783 26 167 26 654 -1 825 -10 66 -22 127 -27 136 -4 9 -29 24 -54
34 -26 9 -43 21 -38 24 4 4 41 18 81 32 68 22 72 25 68 49 -126 627 -334 1277
-618 1933 -142 328 -141 327 -147 327 -4 -1 -49 -42 -101 -91z m-4410 -10559
l0 -2030 -120 0 -120 0 0 -674 0 -674 -132 -6 c-73 -3 -245 -11 -381 -17 -137
-6 -250 -10 -252 -8 -2 2 102 591 231 1309 129 718 275 1530 324 1805 49 275
139 777 200 1115 61 338 133 743 161 900 28 157 52 291 54 298 3 6 11 12 20
12 13 0 15 -214 15 -2030z"/>
<path d="M29835 22250 c-671 -43 -1221 -79 -1223 -79 -2 -1 -2 -22 0 -48 l3
-48 1285 0 1285 0 3 128 3 127 -68 -1 c-37 -1 -617 -37 -1288 -79z"/>
<path d="M9122 21758 l3 -313 758 -3 757 -2 0 -7274 0 -7273 95 -13 c53 -7 94
-14 92 -17 -2 -2 -1189 -3 -2638 -3 -1549 0 -2650 -4 -2673 -9 -59 -14 -91
-52 -91 -106 0 -37 6 -50 33 -77 l32 -33 24495 -3 c16312 -1 24495 -5 24495
-12 0 -6 53 -10 140 -10 87 0 140 4 140 10 0 7 318 10 935 10 617 0 935 -3
935 -10 0 -6 53 -10 140 -10 87 0 140 4 140 10 0 7 493 10 1460 10 967 0 1460
-3 1460 -10 0 -13 277 -14 282 0 2 7 1129 10 3336 10 3649 0 3384 -4 3416 59
29 55 13 118 -38 152 -18 12 -499 14 -3366 17 l-3345 2 -3 2555 -2 2555 -140
0 -140 0 0 -1690 0 -1690 -1460 0 -1460 0 0 1678 c0 922 0 1683 0 1690 0 9
-35 12 -140 12 l-140 0 0 -1690 0 -1690 -935 0 -935 0 0 1678 c0 922 0 1683 0
1690 0 9 -35 12 -140 12 l-140 0 0 -2555 0 -2555 -5487 0 -5488 0 -81 -24
c-201 -59 -443 -97 -577 -90 -120 6 -154 22 -215 98 -11 14 -69 16 -535 16
-287 0 -530 0 -539 0 -15 0 -17 25 -21 283 -2 155 -9 330 -16 388 -10 86 -10
123 0 190 9 61 14 295 16 842 l4 757 -276 0 -275 0 0 -1230 0 -1230 -1380 -1
c-759 -1 -1386 -2 -1392 -3 -10 -1 -14 253 -16 1232 l-2 1232 -275 0 -275 0 0
-1230 0 -1230 -1745 0 -1745 0 0 1230 0 1230 -150 0 -150 0 0 5880 0 5880
3895 0 3895 0 0 -1000 0 -999 48 20 c26 12 76 31 112 44 l65 22 3 1136 2 1137
-5695 0 -5695 0 0 -695 c0 -382 -2 -695 -5 -695 -2 0 -60 29 -128 65 l-123 65
-230 -25 c-408 -43 -861 -79 -1379 -107 -312 -17 -1352 -17 -1590 0 -679 49
-1131 142 -1430 295 -123 63 -213 145 -292 268 l-56 87 -111 6 c-61 3 -682 10
-1381 16 -698 6 -1516 13 -1817 17 l-548 6 0 -127 c0 -153 -17 -239 -71 -354
-105 -227 -309 -421 -768 -735 -484 -330 -559 -382 -669 -464 -624 -466 -978
-935 -1123 -1488 l-31 -120 11 -165 c13 -189 48 -579 57 -628 4 -29 3 -33 -13
-29 -10 3 -35 8 -55 12 l-38 6 0 -78 c0 -114 2 -117 71 -138 53 -16 59 -21 64
-49 2 -17 25 -200 50 -406 88 -724 239 -1739 416 -2805 176 -1064 465 -2665
694 -3853 30 -155 55 -291 55 -300 0 -16 -28 -22 -222 -51 -969 -141 -1571
-350 -1629 -564 -13 -48 -7 -57 43 -57 l40 0 -3 -553 c-3 -542 -2 -553 19
-632 27 -96 80 -213 123 -266 29 -36 29 -39 10 -39 -12 0 -1649 0 -3638 0
l-3618 0 -3 7290 -2 7290 1962 2 1963 3 3 313 2 312 -2990 0 -2990 0 2 -312z
m14773 -3768 c1206 -204 1478 -250 2090 -355 303 -52 939 -160 1415 -240 476
-81 867 -149 869 -151 3 -2 -14 -102 -37 -222 -336 -1735 -1571 -8074 -1574
-8077 -2 -3 -42 2 -89 10 -541 93 -1439 171 -2441 211 l-168 6 0 674 0 674
-115 0 -115 0 0 2030 0 2030 115 0 115 0 0 739 0 739 123 6 c67 3 205 8 307
11 914 28 1895 114 2520 220 458 78 790 178 898 270 38 32 66 81 58 101 -5 12
-412 14 -2855 14 l-2849 0 -6 88 c-3 48 -8 182 -11 297 -3 116 -8 240 -11 276
l-6 66 114 94 c572 474 781 639 801 634 12 -3 396 -68 852 -145z m-1454 -1930
l199 0 0 -740 0 -740 135 0 135 0 0 -2030 0 -2030 -135 0 -135 0 0 -669 0
-669 -105 -7 c-58 -4 -108 -6 -110 -3 -4 3 -14 286 -60 1578 -3 85 -7 209 -10
275 -3 66 -7 192 -10 280 -3 88 -42 1190 -85 2449 -44 1258 -80 2295 -80 2303
0 12 7 14 31 9 17 -3 121 -6 230 -6z m8149 -6740 l100 0 0 -1230 c0 -1165 -1
-1230 -17 -1230 -56 -1 -261 -2 -275 -1 -12 1 -9 8 15 34 16 17 42 57 56 87
23 49 26 67 26 165 0 130 -16 175 -90 254 -49 52 -127 91 -184 91 -16 0 -91
18 -167 39 -136 39 -727 202 -1294 358 l-285 78 -207 -1 c-114 0 -207 1 -205
2 11 11 303 36 422 36 l150 0 114 285 c524 1317 1077 2836 1528 4194 l208 626
3 -1894 2 -1893 100 0z m3010 -1230 l0 -1230 -1175 0 -1175 0 0 1230 0 1230
1175 0 1175 0 0 -1230z m-13416 252 c3 -5 15 -62 27 -128 l22 -120 -36 -97
c-95 -251 -111 -428 -43 -472 21 -14 28 -14 77 5 30 11 99 45 153 75 55 30
102 53 104 51 2 -3 -6 -34 -18 -70 -12 -36 -28 -105 -36 -153 -15 -95 -18
-353 -5 -488 4 -44 7 -81 6 -83 -1 -2 -814 -3 -1067 -2 -14 0 -11 9 18 47 125
163 178 441 133 693 -39 215 -158 404 -294 466 -71 33 -187 54 -296 54 l-89 0
0 115 0 115 669 0 c369 0 672 -4 675 -8z m2766 -107 l0 -115 -57 0 c-135 0
-269 -38 -338 -95 -39 -32 -46 -34 -69 -23 -18 8 -26 19 -26 37 0 14 -3 90 -7
169 l-6 142 251 0 252 0 0 -115z m3590 98 c0 -10 -15 -93 -33 -184 l-33 -167
-90 -88 c-99 -97 -144 -172 -144 -236 0 -49 34 -85 88 -94 65 -10 64 -7 52
-150 -10 -122 -1 -410 16 -516 5 -33 3 -37 -18 -40 -13 -2 -664 -2 -1448 0
l-1425 2 3 93 c2 53 11 117 22 152 60 192 63 417 9 590 -17 53 -19 94 -19 358
l0 297 1510 0 c1432 0 1510 -1 1510 -17z m30090 -747 l0 -724 -22 -3 c-13 -2
-434 -3 -935 -1 l-913 2 0 725 0 725 935 0 935 0 0 -724z m3200 -1 c0 -718 0
-725 -20 -725 -11 0 -667 0 -1457 0 l-1438 0 -3 725 -2 725 1460 0 1460 0 0
-725z"/>
<path d="M15860 14165 l0 -7275 278 2 277 3 3 7273 2 7272 -280 0 -280 0 0
-7275z"/>
<path d="M61306 20738 c-434 -434 -721 -754 -1109 -1238 -1074 -1337 -1910
-2808 -2440 -4295 -80 -225 -191 -565 -185 -570 12 -11 152 -45 158 -38 4 4
35 96 70 203 592 1849 1729 3761 3188 5362 193 212 548 573 676 688 52 47 95
90 95 95 1 13 -98 125 -111 125 -5 0 -159 -150 -342 -332z"/>
<path d="M55996 20113 c-345 -1443 -395 -3148 -136 -4593 50 -275 161 -763
216 -942 4 -15 10 -15 64 4 33 11 60 22 60 25 0 3 -18 71 -40 152 -146 536
-253 1174 -305 1821 -84 1046 -2 2276 221 3305 34 157 69 300 80 328 4 10 -11
18 -54 31 -32 9 -61 16 -64 16 -4 0 -22 -66 -42 -147z"/>
<path d="M41650 13170 l0 -3850 115 0 115 0 0 3804 0 3804 -52 18 c-29 9 -81
30 -115 45 l-63 28 0 -3849z"/>
<path d="M42435 7220 c-22 -4 -91 -14 -152 -21 -76 -8 -113 -16 -113 -25 0
-22 88 -132 136 -168 52 -40 141 -71 232 -82 l59 -6 -33 98 c-18 55 -38 125
-44 157 -12 62 -11 61 -85 47z"/>
</g>
</svg>
