<?xml version="1.0" standalone="no"?>
<!DOCTYPE svg PUBLIC "-//W3C//DTD SVG 20010904//EN"
 "http://www.w3.org/TR/2001/REC-SVG-20010904/DTD/svg10.dtd">
<svg version="1.0" xmlns="http://www.w3.org/2000/svg"
 width="740.000000pt" height="740.000000pt" viewBox="0 0 740.000000 740.000000"
 preserveAspectRatio="xMidYMid meet">

<g transform="translate(0.000000,740.000000) scale(0.100000,-0.100000)"
fill="#000000" stroke="none">
<path d="M5592 5799 c-101 -50 -140 -174 -87 -279 63 -125 248 -148 337 -42
37 44 51 94 46 163 -3 46 -11 67 -34 96 -63 79 -174 105 -262 62z m223 -99 c8
-13 -131 -180 -150 -180 -18 0 -105 102 -105 124 0 29 34 17 70 -25 l35 -41
55 66 c52 62 81 79 95 56z"/>
<path d="M5222 5202 c-13 -4 -24 -11 -25 -17 0 -5 -17 -15 -37 -22 -45 -16
-70 -47 -70 -87 1 -26 2 -28 11 -13 17 30 26 10 21 -45 -5 -48 -4 -52 11 -39
18 14 24 36 7 26 -26 -16 -6 27 23 49 30 24 32 25 35 6 4 -24 8 -24 52 -1 l35
19 37 -27 c23 -17 40 -39 48 -63 11 -38 23 -47 36 -27 3 6 17 9 31 6 20 -4 29
2 44 27 25 41 24 64 -7 126 -20 40 -35 56 -67 71 -42 19 -137 24 -185 11z"/>
<path d="M5260 4997 c27 -15 36 -14 25 2 -3 6 -16 11 -28 11 -21 0 -21 -1 3
-13z"/>
<path d="M5240 4951 c0 -6 5 -13 10 -16 6 -3 10 1 10 9 0 9 -4 16 -10 16 -5 0
-10 -4 -10 -9z"/>
<path d="M5150 4934 c0 -8 5 -12 10 -9 6 3 10 10 10 16 0 5 -4 9 -10 9 -5 0
-10 -7 -10 -16z"/>
<path d="M5187 4896 c-4 -10 -5 -21 -2 -24 9 -9 17 6 13 25 -3 17 -4 17 -11
-1z"/>
<path d="M3220 4880 c0 -5 5 -10 10 -10 6 0 10 5 10 10 0 6 -4 10 -10 10 -5 0
-10 -4 -10 -10z"/>
<path d="M3123 4873 c-27 -10 -14 -44 23 -59 42 -18 40 -39 -4 -39 -17 0 -27
-4 -23 -8 5 -5 21 -7 37 -5 21 2 30 9 32 25 3 17 -5 26 -33 37 -43 18 -42 41
3 41 16 0 28 3 25 7 -5 9 -41 9 -60 1z"/>
<path d="M5285 4860 c-4 -6 -17 -15 -29 -20 -14 -6 -16 -9 -5 -9 19 -1 56 25
47 34 -3 3 -9 1 -13 -5z"/>
<path d="M3220 4805 c0 -25 5 -45 10 -45 6 0 10 20 10 45 0 25 -4 45 -10 45
-5 0 -10 -20 -10 -45z"/>
<path d="M3284 4842 c-39 -26 -6 -88 41 -76 29 7 31 2 9 -20 -10 -10 -25 -14
-42 -11 -23 4 -24 4 -7 -4 49 -23 75 1 75 67 0 46 -1 47 -33 49 -17 1 -37 -1
-43 -5z m55 -16 c22 -26 -10 -63 -44 -50 -15 6 -21 45 -8 57 11 12 40 8 52 -7z"/>
<path d="M3401 4800 l2 -45 6 40 c5 34 10 40 31 40 21 0 26 -6 31 -40 l6 -40
2 36 c1 42 -15 60 -53 57 -24 -2 -26 -5 -25 -48z"/>
<path d="M3560 4816 c0 -41 16 -56 58 -53 31 2 32 3 31 47 -1 44 -1 44 -9 12
-10 -41 -24 -57 -44 -49 -10 4 -16 19 -16 42 0 19 -4 35 -10 35 -5 0 -10 -15
-10 -34z"/>
<path d="M3689 4786 c3 -34 6 -52 8 -40 3 17 9 20 30 16 26 -5 53 17 53 44 0
23 -30 43 -63 42 l-32 -1 4 -61z m70 35 c13 -24 -8 -55 -35 -49 -20 3 -30 29
-20 54 8 20 43 17 55 -5z"/>
<path d="M5315 4710 c4 -6 11 -8 16 -5 14 9 11 15 -7 15 -8 0 -12 -5 -9 -10z"/>
<path d="M5650 4587 c-26 -61 -60 -214 -60 -274 0 -24 -4 -43 -9 -43 -10 0
-47 190 -57 293 -4 37 -11 67 -16 67 -5 0 -24 -16 -43 -35 -40 -39 -108 -64
-133 -49 -10 6 -21 20 -27 32 -13 30 -25 23 -51 -29 -23 -46 -64 -224 -64
-278 0 -17 -4 -31 -9 -31 -10 0 -41 197 -41 263 0 47 0 47 -23 35 -28 -15 -68
-61 -161 -180 -77 -101 -63 -97 -236 -73 -153 21 -146 22 -159 -29 -6 -24 -13
-50 -16 -58 -7 -19 195 -69 308 -76 87 -5 106 3 201 92 27 25 51 45 52 43 2
-2 8 -66 14 -143 6 -76 17 -202 25 -279 8 -77 18 -168 21 -201 l6 -61 43 13
c24 7 46 10 48 7 3 -3 3 4 0 16 -3 12 -1 21 3 21 5 0 96 12 202 26 106 15 195
24 198 21 3 -3 8 -24 11 -47 l6 -42 64 6 c100 10 112 18 106 63 -3 25 2 56 15
89 24 59 16 82 -38 104 -32 13 -34 17 -21 39 7 11 17 8 53 -13 25 -14 50 -26
56 -26 15 0 96 115 127 181 36 77 33 123 -13 212 -89 171 -242 355 -317 380
l-43 15 -22 -51z m219 -363 c72 -78 73 -92 21 -191 -24 -45 -46 -80 -50 -78
-4 2 -12 66 -19 142 -7 76 -14 148 -17 161 -7 35 10 26 65 -34z"/>
<path d="M5262 3560 c0 -14 2 -19 5 -12 2 6 2 18 0 25 -3 6 -5 1 -5 -13z"/>
<path d="M5824 3285 c0 -154 2 -216 3 -137 2 79 2 205 0 280 -1 75 -3 11 -3
-143z"/>
<path d="M5252 3490 c0 -14 2 -19 5 -12 2 6 2 18 0 25 -3 6 -5 1 -5 -13z"/>
<path d="M5242 3425 c0 -16 2 -22 5 -12 2 9 2 23 0 30 -3 6 -5 -1 -5 -18z"/>
<path d="M5232 3350 c0 -19 2 -27 5 -17 2 9 2 25 0 35 -3 9 -5 1 -5 -18z"/>
<path d="M5222 3285 c0 -16 2 -22 5 -12 2 9 2 23 0 30 -3 6 -5 -1 -5 -18z"/>
<path d="M5475 3283 c-24 -95 -45 -273 -45 -377 0 -66 2 -117 4 -115 2 2 16
72 30 154 15 83 31 160 36 172 10 25 1 193 -10 193 -4 0 -11 -12 -15 -27z"/>
<path d="M5451 3284 c0 -11 3 -14 6 -6 3 7 2 16 -1 19 -3 4 -6 -2 -5 -13z"/>
<path d="M5212 3210 c0 -19 2 -27 5 -17 2 9 2 25 0 35 -3 9 -5 1 -5 -18z"/>
<path d="M5202 3145 c0 -16 2 -22 5 -12 2 9 2 23 0 30 -3 6 -5 -1 -5 -18z"/>
<path d="M5513 3080 c0 -25 2 -35 4 -22 2 12 2 32 0 45 -2 12 -4 2 -4 -23z"/>
<path d="M5192 3065 c0 -16 2 -22 5 -12 2 9 2 23 0 30 -3 6 -5 -1 -5 -18z"/>
<path d="M5182 2990 c0 -19 2 -27 5 -17 2 9 2 25 0 35 -3 9 -5 1 -5 -18z"/>
<path d="M5523 2910 c0 -47 2 -66 4 -42 2 23 2 61 0 85 -2 23 -4 4 -4 -43z"/>
<path d="M5155 2795 c-9 -81 -15 -148 -13 -151 3 -2 13 61 23 141 9 81 15 148
13 151 -3 2 -13 -61 -23 -141z"/>
<path d="M5814 2755 c0 -93 2 -133 3 -88 2 45 2 122 0 170 -1 48 -3 12 -3 -82z"/>
<path d="M5533 2730 c0 -47 2 -66 4 -42 2 23 2 61 0 85 -2 23 -4 4 -4 -43z"/>
<path d="M5415 2740 c-4 -23 -5 -43 -2 -46 2 -3 7 14 11 37 4 23 5 44 2 46 -2
2 -7 -14 -11 -37z"/>
<path d="M1566 2671 c-12 -19 4 -88 28 -123 33 -49 66 -65 105 -49 17 8 31 20
31 27 0 8 10 14 24 14 14 0 27 4 30 8 9 15 -32 71 -72 97 -44 29 -135 45 -146
26z"/>
<path d="M3732 2655 c0 -16 2 -22 5 -12 2 9 2 23 0 30 -3 6 -5 -1 -5 -18z"/>
<path d="M3781 2657 c-16 -16 7 -41 25 -26 8 6 14 15 14 19 0 14 -27 19 -39 7z
m23 -18 c-3 -5 -10 -7 -15 -3 -5 3 -7 10 -3 15 3 5 10 7 15 3 5 -3 7 -10 3
-15z"/>
<path d="M3837 2663 c-13 -12 -7 -33 9 -33 8 0 12 -4 9 -10 -3 -5 -1 -10 4
-10 6 0 11 12 10 28 0 15 -3 21 -6 15 -2 -7 -9 -13 -15 -13 -6 0 -8 7 -4 15 6
16 3 19 -7 8z"/>
<path d="M3940 2659 c-13 -9 -12 -10 2 -5 10 3 22 -2 27 -12 12 -19 14 -12 5
12 -7 19 -14 20 -34 5z"/>
<path d="M5402 2650 c0 -14 2 -19 5 -12 2 6 2 18 0 25 -3 6 -5 1 -5 -13z"/>
<path d="M3911 2644 c0 -11 3 -14 6 -6 3 7 2 16 -1 19 -3 4 -6 -2 -5 -13z"/>
<path d="M5125 2560 c-4 -39 -5 -73 -2 -76 2 -3 8 27 11 67 4 39 5 73 3 76 -3
2 -8 -28 -12 -67z"/>
<path d="M5391 2594 c0 -11 3 -14 6 -6 3 7 2 16 -1 19 -3 4 -6 -2 -5 -13z"/>
<path d="M5543 2525 c0 -44 2 -61 4 -37 2 23 2 59 0 80 -2 20 -4 1 -4 -43z"/>
<path d="M5365 2476 c-9 -53 -15 -101 -13 -108 2 -6 12 34 22 91 10 56 16 104
13 107 -2 3 -12 -38 -22 -90z"/>
<path d="M1818 2533 c-43 -17 -47 -27 -19 -43 12 -6 21 -23 23 -42 4 -43 40
-64 91 -54 51 10 136 89 118 110 -37 44 -142 59 -213 29z"/>
<path d="M1460 2503 c-40 -21 -80 -75 -80 -110 0 -25 0 -25 89 -21 75 2 93 6
109 24 17 18 18 24 7 51 -7 17 -12 39 -12 49 3 27 -66 30 -113 7z"/>
<path d="M5804 2425 c0 -55 1 -76 3 -47 2 29 2 74 0 100 -2 26 -3 2 -3 -53z"/>
<path d="M2480 2340 l0 -160 965 0 965 0 0 160 0 160 -965 0 -965 0 0 -160z
m980 65 c0 -8 -4 -15 -10 -15 -5 0 -10 7 -10 15 0 8 5 15 10 15 6 0 10 -7 10
-15z m-269 -5 c20 -11 26 -54 9 -65 -7 -4 -6 -13 1 -26 16 -30 0 -38 -21 -11
-23 27 -36 28 -43 2 -3 -11 -10 -20 -16 -20 -7 0 -11 25 -11 65 l0 65 31 0
c17 0 39 -5 50 -10z m399 -10 c0 -5 7 -10 15 -10 8 0 15 -4 15 -10 0 -5 -7
-10 -15 -10 -9 0 -15 -9 -15 -25 0 -16 6 -25 16 -25 9 0 14 -6 12 -12 -3 -7
-13 -13 -24 -13 -15 0 -20 8 -22 37 -3 34 -5 36 -38 36 -40 0 -43 -5 -9 -18
46 -17 19 -68 -30 -56 -36 9 -31 26 8 27 22 1 25 3 10 6 -62 12 -47 63 18 63
22 0 39 5 39 10 0 6 5 10 10 10 6 0 10 -4 10 -10z m-291 -24 c17 -20 9 -66
-13 -78 -44 -24 -90 44 -54 80 16 16 53 15 67 -2z m121 -35 c0 -68 -31 -95
-84 -75 -28 11 -17 24 22 25 27 1 30 3 12 6 -34 7 -50 21 -50 47 0 32 19 46
62 46 l38 0 0 -49z m40 -1 c0 -27 -4 -50 -10 -50 -5 0 -10 23 -10 50 0 28 5
50 10 50 6 0 10 -22 10 -50z m244 28 c20 -27 13 -38 -27 -39 l-32 -2 34 -6
c32 -6 33 -7 17 -21 -38 -31 -98 37 -66 76 18 21 57 17 74 -8z m76 12 c0 -4
-7 -10 -15 -14 -9 -3 -15 -19 -15 -41 0 -19 -4 -35 -10 -35 -5 0 -10 22 -10
49 0 45 2 49 25 49 14 0 25 -4 25 -8z"/>
<path d="M3140 2359 c0 -25 33 -22 38 4 2 12 -3 17 -17 17 -15 0 -21 -6 -21
-21z"/>
<path d="M3245 2350 c-4 -6 5 -10 20 -10 15 0 24 4 20 10 -3 6 -12 10 -20 10
-8 0 -17 -4 -20 -10z"/>
<path d="M3258 2313 c6 -2 18 -2 25 0 6 3 1 5 -13 5 -14 0 -19 -2 -12 -5z"/>
<path d="M3344 2345 c-4 -9 -2 -21 4 -27 15 -15 44 -1 40 19 -4 23 -36 29 -44
8z"/>
<path d="M3655 2350 c-3 -5 3 -10 15 -10 12 0 18 5 15 10 -3 6 -10 10 -15 10
-5 0 -12 -4 -15 -10z"/>
<path d="M5113 2430 c0 -25 2 -35 4 -22 2 12 2 32 0 45 -2 12 -4 2 -4 -23z"/>
<path d="M1742 2430 c0 -14 2 -19 5 -12 2 6 2 18 0 25 -3 6 -5 1 -5 -13z"/>
<path d="M5553 2330 c0 -47 2 -66 4 -42 2 23 2 61 0 85 -2 23 -4 4 -4 -43z"/>
<path d="M1640 2373 c-18 -4 -50 -72 -50 -107 0 -13 9 -34 19 -47 18 -23 20
-23 38 -6 23 20 30 21 36 5 2 -7 3 -5 1 5 -1 10 6 34 17 52 16 27 18 38 9 54
-6 12 -15 21 -20 21 -5 0 -15 6 -22 13 -7 7 -20 11 -28 10z"/>
<path d="M5095 2305 c-4 -42 -5 -79 -2 -81 2 -3 8 29 12 71 4 42 5 79 2 81 -2
3 -8 -29 -12 -71z"/>
<path d="M1753 2335 c0 -22 2 -30 4 -17 2 12 2 30 0 40 -3 9 -5 -1 -4 -23z"/>
<path d="M5335 2305 c-3 -26 -4 -49 -2 -51 3 -3 8 16 12 41 3 26 4 49 2 51 -3
3 -8 -16 -12 -41z"/>
<path d="M1963 2328 c-5 -7 -10 -30 -12 -51 -2 -34 0 -39 31 -51 18 -7 50 -16
71 -20 l37 -7 0 37 c0 65 -95 134 -127 92z"/>
<path d="M1865 2310 c-3 -6 1 -7 9 -4 18 7 21 14 7 14 -6 0 -13 -4 -16 -10z"/>
<path d="M1819 2265 c-25 -43 -53 -48 -43 -9 5 19 4 25 -5 20 -6 -4 -11 -20
-11 -36 0 -21 -6 -29 -25 -34 -14 -4 -25 -11 -25 -17 0 -6 -5 -7 -10 -4 -7 4
-9 -2 -5 -17 3 -12 9 -43 14 -68 5 -25 9 -34 10 -21 1 24 1 24 16 5 17 -23 21
-134 4 -134 -8 0 -10 -18 -7 -55 3 -31 1 -58 -4 -62 -6 -3 -8 -31 -6 -62 l3
-56 -167 -3 -168 -2 0 -29 c0 -30 27 -61 53 -61 20 0 22 -5 48 -207 l23 -173
226 0 227 0 22 163 c29 219 27 211 60 224 23 8 29 18 33 47 l4 36 -153 0 -153
0 -2 43 -1 42 -6 -45 c-11 -81 -16 -28 -13 129 3 148 4 153 21 137 11 -10 18
-25 16 -34 -1 -9 0 -11 2 -4 4 11 9 10 24 -4 17 -15 21 -15 42 -1 22 14 30 29
52 92 7 19 7 19 16 -3 12 -30 47 -42 130 -42 77 0 83 7 55 73 -19 46 -59 69
-132 76 -58 6 -62 6 -53 -11 11 -20 3 -58 -12 -58 -5 0 -9 14 -9 32 0 38 -43
98 -71 98 -23 0 -24 18 -3 48 8 12 12 22 9 22 -3 0 -15 -16 -26 -35z"/>
<path d="M5307 2153 c-9 -50 -17 -99 -16 -109 1 -11 10 26 20 81 10 55 17 104
16 110 -2 5 -11 -31 -20 -82z"/>
<path d="M5793 2150 c0 -47 2 -66 4 -42 2 23 2 61 0 85 -2 23 -4 4 -4 -43z"/>
<path d="M5561 2204 c0 -11 3 -14 6 -6 3 7 2 16 -1 19 -3 4 -6 -2 -5 -13z"/>
<path d="M5076 2139 c-4 -39 -5 -73 -3 -76 3 -2 8 28 12 67 4 39 5 73 2 76 -2
3 -8 -27 -11 -67z"/>
<path d="M1515 2180 c-3 -6 1 -7 9 -4 18 7 21 14 7 14 -6 0 -13 -4 -16 -10z"/>
<path d="M1606 2171 c17 -10 36 -33 44 -50 7 -17 15 -30 17 -27 15 15 -54 96
-82 96 -5 0 4 -9 21 -19z"/>
<path d="M5563 2115 c0 -38 2 -53 4 -32 2 20 2 52 0 70 -2 17 -4 1 -4 -38z"/>
<path d="M1372 2135 c-66 -55 -88 -134 -56 -201 l16 -34 67 35 c135 71 170
121 117 170 -13 12 -25 27 -27 34 -3 7 -23 15 -45 18 -33 4 -45 1 -72 -22z"/>
<path d="M5063 2010 c0 -25 2 -35 4 -22 2 12 2 32 0 45 -2 12 -4 2 -4 -23z"/>
<path d="M1722 2000 c0 -14 2 -19 5 -12 2 6 2 18 0 25 -3 6 -5 1 -5 -13z"/>
<path d="M5282 2000 c0 -14 2 -19 5 -12 2 6 2 18 0 25 -3 6 -5 1 -5 -13z"/>
<path d="M5574 1935 c0 -49 1 -71 3 -48 2 23 2 64 0 90 -2 26 -3 8 -3 -42z"/>
<path d="M1691 1994 c0 -11 3 -14 6 -6 3 7 2 16 -1 19 -3 4 -6 -2 -5 -13z"/>
<path d="M5783 1905 c0 -38 2 -53 4 -32 2 20 2 52 0 70 -2 17 -4 1 -4 -38z"/>
<path d="M1701 1944 c0 -11 3 -14 6 -6 3 7 2 16 -1 19 -3 4 -6 -2 -5 -13z"/>
<path d="M5267 1938 c-3 -13 -8 -45 -11 -73 -4 -40 -2 -36 9 19 8 38 13 71 11
73 -2 2 -6 -6 -9 -19z"/>
<path d="M5052 1920 c0 -19 2 -27 5 -17 2 9 2 25 0 35 -3 9 -5 1 -5 -18z"/>
<path d="M1782 1900 c0 -19 2 -27 5 -17 2 9 2 25 0 35 -3 9 -5 1 -5 -18z"/>
<path d="M1712 1880 c0 -14 2 -19 5 -12 2 6 2 18 0 25 -3 6 -5 1 -5 -13z"/>
<path d="M5042 1840 c0 -19 2 -27 5 -17 2 9 2 25 0 35 -3 9 -5 1 -5 -18z"/>
<path d="M5584 1735 c0 -49 1 -71 3 -48 2 23 2 64 0 90 -2 26 -3 8 -3 -42z"/>
<path d="M5227 1717 c-9 -47 -17 -96 -16 -109 1 -13 10 22 20 77 10 55 18 104
16 109 -2 5 -11 -29 -20 -77z"/>
<path d="M5774 1695 c0 -49 1 -71 3 -48 2 23 2 64 0 90 -2 26 -3 8 -3 -42z"/>
<path d="M5032 1745 c0 -16 2 -22 5 -12 2 9 2 23 0 30 -3 6 -5 -1 -5 -18z"/>
<path d="M5023 1650 c0 -25 2 -35 4 -22 2 12 2 32 0 45 -2 12 -4 2 -4 -23z"/>
<path d="M5593 1570 c0 -36 2 -50 4 -32 2 17 2 47 0 65 -2 17 -4 3 -4 -33z"/>
<path d="M5012 1569 c-1 -15 1 -41 4 -58 5 -25 9 -29 20 -20 12 10 12 13 0 23
-8 6 -17 27 -19 46 -3 26 -4 28 -5 9z"/>
<path d="M5202 1560 c0 -14 2 -19 5 -12 2 6 2 18 0 25 -3 6 -5 1 -5 -13z"/>
<path d="M5760 1541 c0 -15 -8 -21 -32 -24 -32 -4 -32 -4 5 -5 33 -2 37 0 37
23 0 14 -2 25 -5 25 -3 0 -5 -9 -5 -19z"/>
<path d="M5168 1513 c6 -2 18 -2 25 0 6 3 1 5 -13 5 -14 0 -19 -2 -12 -5z"/>
<path d="M5691 1484 c0 -11 3 -14 6 -6 3 7 2 16 -1 19 -3 4 -6 -2 -5 -13z"/>
<path d="M5633 1483 c9 -2 25 -2 35 0 9 3 1 5 -18 5 -19 0 -27 -2 -17 -5z"/>
<path d="M4955 1349 c8 -12 -56 -40 -126 -54 -82 -18 -84 -18 -76 -40 6 -13
34 -15 198 -15 l191 0 -7 36 c-16 85 -16 86 -104 82 -43 -2 -77 -6 -76 -9z"/>
<path d="M5565 1350 c8 -13 -55 -40 -125 -55 -87 -18 -95 -22 -79 -41 9 -11
50 -14 200 -14 104 0 189 3 189 8 0 4 -6 30 -13 57 l-13 50 -81 0 c-45 0 -80
-2 -78 -5z"/>
</g>
</svg>
